<ttFont>
<head>
    <!-- Most of this table will be recalculated by the compiler -->
    <tableVersion value="1.0"/>
    <fontRevision value="1.0"/>
    <checkSumAdjustment value="0x2a83f83a"/>
    <magicNumber value="0x5f0f3cf5"/>
    <flags value="00000000 00000000"/>
    <unitsPerEm value="4096"/>
    <created value="Thu Jan  3 20:37:27 2019"/>
    <modified value="Thu Jan  3 20:37:27 2019"/>
    <xMin value="0"/>
    <yMin value="-512"/>
    <xMax value="4096"/>
    <yMax value="4096"/>
    <macStyle value="00000000 00000000"/>
    <lowestRecPPEM value="8"/>
    <fontDirectionHint value="2"/>
    <indexToLocFormat value="1"/>
    <glyphDataFormat value="0"/>
  </head>
    <TTGlyph name=".notdef" xMin="0" yMin="0" xMax="2756" yMax="3584">
      <contour>
        <pt x="2687" y="50" on="1"/>
        <pt x="1378" y="1772" on="1"/>
        <pt x="69" y="50" on="1"/>
      </contour>
      <contour>
        <pt x="50" y="69" on="1"/>
        <pt x="1359" y="1792" on="1"/>
        <pt x="50" y="3514" on="1"/>
        <pt x="50" y="69" on="1"/>
      </contour>
      <contour>
        <pt x="2706" y="69" on="1"/>
        <pt x="2706" y="3514" on="1"/>
        <pt x="1397" y="1792" on="1"/>
        <pt x="2706" y="69" on="1"/>
      </contour>
      <contour>
        <pt x="1378" y="1811" on="1"/>
        <pt x="2687" y="3534" on="1"/>
        <pt x="69" y="3534" on="1"/>
        <pt x="1378" y="1811" on="1"/>
      </contour>
      <contour>
        <pt x="0" y="0" on="1"/>
        <pt x="0" y="3584" on="1"/>
        <pt x="2756" y="3584" on="1"/>
        <pt x="2756" y="0" on="1"/>
      </contour>
    </TTGlyph>
    <TTGlyph name="A" xMin="0" yMin="0" xMax="2560" yMax="3584">
      <contour>
        <pt x="0" y="0" on="1"/>
        <pt x="0" y="3072" on="1"/>
        <pt x="512" y="3072" on="1"/>
        <pt x="512" y="1536" on="1"/>
        <pt x="2048" y="1536" on="1"/>
        <pt x="2048" y="3072" on="1"/>
        <pt x="2560" y="3072" on="1"/>
        <pt x="2560" y="0" on="1"/>
        <pt x="2048" y="0" on="1"/>
        <pt x="2048" y="1024" on="1"/>
        <pt x="512" y="1024" on="1"/>
        <pt x="512" y="0" on="1"/>
      </contour>
      <contour>
        <pt x="512" y="3072" on="1"/>
        <pt x="512" y="3584" on="1"/>
        <pt x="2048" y="3584" on="1"/>
        <pt x="2048" y="3072" on="1"/>
      </contour>
    </TTGlyph>
    <TTGlyph name="B" xMin="0" yMin="0" xMax="2560" yMax="3584">
      <contour>
        <pt x="2048" y="512" on="1"/>
        <pt x="2048" y="1536" on="1"/>
        <pt x="2560" y="1536" on="1"/>
        <pt x="2560" y="512" on="1"/>
      </contour>
      <contour>
        <pt x="2048" y="2048" on="1"/>
        <pt x="2048" y="3072" on="1"/>
        <pt x="2560" y="3072" on="1"/>
        <pt x="2560" y="2048" on="1"/>
      </contour>
      <contour>
        <pt x="0" y="0" on="1"/>
        <pt x="0" y="3584" on="1"/>
        <pt x="2048" y="3584" on="1"/>
        <pt x="2048" y="3072" on="1"/>
        <pt x="512" y="3072" on="1"/>
        <pt x="512" y="2048" on="1"/>
        <pt x="2048" y="2048" on="1"/>
        <pt x="2048" y="1536" on="1"/>
        <pt x="512" y="1536" on="1"/>
        <pt x="512" y="512" on="1"/>
        <pt x="2048" y="512" on="1"/>
        <pt x="2048" y="0" on="1"/>
      </contour>
    </TTGlyph>
    <TTGlyph name="C" xMin="0" yMin="0" xMax="2560" yMax="3584">
      <contour>
        <pt x="512" y="0" on="1"/>
        <pt x="512" y="512" on="1"/>
        <pt x="2048" y="512" on="1"/>
        <pt x="2048" y="0" on="1"/>
      </contour>
      <contour>
        <pt x="2048" y="512" on="1"/>
        <pt x="2048" y="1024" on="1"/>
        <pt x="2560" y="1024" on="1"/>
        <pt x="2560" y="512" on="1"/>
      </contour>
      <contour>
        <pt x="0" y="512" on="1"/>
        <pt x="0" y="3072" on="1"/>
        <pt x="512" y="3072" on="1"/>
        <pt x="512" y="512" on="1"/>
      </contour>
      <contour>
        <pt x="2048" y="2560" on="1"/>
        <pt x="2048" y="3072" on="1"/>
        <pt x="2560" y="3072" on="1"/>
        <pt x="2560" y="2560" on="1"/>
      </contour>
      <contour>
        <pt x="512" y="3072" on="1"/>
        <pt x="512" y="3584" on="1"/>
        <pt x="2048" y="3584" on="1"/>
        <pt x="2048" y="3072" on="1"/>
      </contour>
    </TTGlyph>
    <TTGlyph name="D" xMin="0" yMin="0" xMax="2560" yMax="3584">
      <contour>
        <pt x="2048" y="512" on="1"/>
        <pt x="2048" y="3072" on="1"/>
        <pt x="2560" y="3072" on="1"/>
        <pt x="2560" y="512" on="1"/>
      </contour>
      <contour>
        <pt x="0" y="0" on="1"/>
        <pt x="0" y="3584" on="1"/>
        <pt x="2048" y="3584" on="1"/>
        <pt x="2048" y="3072" on="1"/>
        <pt x="512" y="3072" on="1"/>
        <pt x="512" y="512" on="1"/>
        <pt x="2048" y="512" on="1"/>
        <pt x="2048" y="0" on="1"/>
      </contour>
    </TTGlyph>
    <TTGlyph name="E" xMin="0" yMin="0" xMax="2560" yMax="3584">
      <contour>
        <pt x="0" y="0" on="1"/>
        <pt x="0" y="3584" on="1"/>
        <pt x="2560" y="3584" on="1"/>
        <pt x="2560" y="3072" on="1"/>
        <pt x="512" y="3072" on="1"/>
        <pt x="512" y="2048" on="1"/>
        <pt x="2048" y="2048" on="1"/>
        <pt x="2048" y="1536" on="1"/>
        <pt x="512" y="1536" on="1"/>
        <pt x="512" y="512" on="1"/>
        <pt x="2560" y="512" on="1"/>
        <pt x="2560" y="0" on="1"/>
      </contour>
    </TTGlyph>
    <TTGlyph name="F" xMin="0" yMin="0" xMax="2560" yMax="3584">
      <contour>
        <pt x="0" y="0" on="1"/>
        <pt x="0" y="3584" on="1"/>
        <pt x="2560" y="3584" on="1"/>
        <pt x="2560" y="3072" on="1"/>
        <pt x="512" y="3072" on="1"/>
        <pt x="512" y="2048" on="1"/>
        <pt x="2048" y="2048" on="1"/>
        <pt x="2048" y="1536" on="1"/>
        <pt x="512" y="1536" on="1"/>
        <pt x="512" y="0" on="1"/>
      </contour>
    </TTGlyph>
    <TTGlyph name="G" xMin="0" yMin="0" xMax="2560" yMax="3584">
      <contour>
        <pt x="512" y="0" on="1"/>
        <pt x="512" y="512" on="1"/>
        <pt x="2048" y="512" on="1"/>
        <pt x="2048" y="1536" on="1"/>
        <pt x="1024" y="1536" on="1"/>
        <pt x="1024" y="2048" on="1"/>
        <pt x="2560" y="2048" on="1"/>
        <pt x="2560" y="0" on="1"/>
      </contour>
      <contour>
        <pt x="0" y="512" on="1"/>
        <pt x="0" y="3072" on="1"/>
        <pt x="512" y="3072" on="1"/>
        <pt x="512" y="512" on="1"/>
      </contour>
      <contour>
        <pt x="2048" y="2560" on="1"/>
        <pt x="2048" y="3072" on="1"/>
        <pt x="2560" y="3072" on="1"/>
        <pt x="2560" y="2560" on="1"/>
      </contour>
      <contour>
        <pt x="512" y="3072" on="1"/>
        <pt x="512" y="3584" on="1"/>
        <pt x="2048" y="3584" on="1"/>
        <pt x="2048" y="3072" on="1"/>
      </contour>
    </TTGlyph>
    <TTGlyph name="H" xMin="0" yMin="0" xMax="2560" yMax="3584">
      <contour>
        <pt x="0" y="0" on="1"/>
        <pt x="0" y="3584" on="1"/>
        <pt x="512" y="3584" on="1"/>
        <pt x="512" y="2048" on="1"/>
        <pt x="2048" y="2048" on="1"/>
        <pt x="2048" y="3584" on="1"/>
        <pt x="2560" y="3584" on="1"/>
        <pt x="2560" y="0" on="1"/>
        <pt x="2048" y="0" on="1"/>
        <pt x="2048" y="1536" on="1"/>
        <pt x="512" y="1536" on="1"/>
        <pt x="512" y="0" on="1"/>
      </contour>
    </TTGlyph>
    <TTGlyph name="I" xMin="512" yMin="0" xMax="2048" yMax="3584">
      <contour>
        <pt x="512" y="0" on="1"/>
        <pt x="512" y="512" on="1"/>
        <pt x="1024" y="512" on="1"/>
        <pt x="1024" y="3072" on="1"/>
        <pt x="512" y="3072" on="1"/>
        <pt x="512" y="3584" on="1"/>
        <pt x="2048" y="3584" on="1"/>
        <pt x="2048" y="3072" on="1"/>
        <pt x="1536" y="3072" on="1"/>
        <pt x="1536" y="512" on="1"/>
        <pt x="2048" y="512" on="1"/>
        <pt x="2048" y="0" on="1"/>
      </contour>
    </TTGlyph>
    <TTGlyph name="J" xMin="0" yMin="0" xMax="2560" yMax="3584">
      <contour>
        <pt x="512" y="0" on="1"/>
        <pt x="512" y="512" on="1"/>
        <pt x="2048" y="512" on="1"/>
        <pt x="2048" y="0" on="1"/>
      </contour>
      <contour>
        <pt x="0" y="512" on="1"/>
        <pt x="0" y="1536" on="1"/>
        <pt x="512" y="1536" on="1"/>
        <pt x="512" y="512" on="1"/>
      </contour>
      <contour>
        <pt x="2048" y="512" on="1"/>
        <pt x="2048" y="3584" on="1"/>
        <pt x="2560" y="3584" on="1"/>
        <pt x="2560" y="512" on="1"/>
      </contour>
    </TTGlyph>
    <TTGlyph name="K" xMin="0" yMin="0" xMax="2560" yMax="3584">
      <contour>
        <pt x="2048" y="0" on="1"/>
        <pt x="2048" y="512" on="1"/>
        <pt x="2560" y="512" on="1"/>
        <pt x="2560" y="0" on="1"/>
      </contour>
      <contour>
        <pt x="1536" y="512" on="1"/>
        <pt x="1536" y="1024" on="1"/>
        <pt x="2048" y="1024" on="1"/>
        <pt x="2048" y="512" on="1"/>
      </contour>
      <contour>
        <pt x="1024" y="1024" on="1"/>
        <pt x="1024" y="1536" on="1"/>
        <pt x="1536" y="1536" on="1"/>
        <pt x="1536" y="1024" on="1"/>
      </contour>
      <contour>
        <pt x="1024" y="2048" on="1"/>
        <pt x="1024" y="2560" on="1"/>
        <pt x="1536" y="2560" on="1"/>
        <pt x="1536" y="2048" on="1"/>
      </contour>
      <contour>
        <pt x="1536" y="2560" on="1"/>
        <pt x="1536" y="3072" on="1"/>
        <pt x="2048" y="3072" on="1"/>
        <pt x="2048" y="2560" on="1"/>
      </contour>
      <contour>
        <pt x="0" y="0" on="1"/>
        <pt x="0" y="3584" on="1"/>
        <pt x="512" y="3584" on="1"/>
        <pt x="512" y="2048" on="1"/>
        <pt x="1024" y="2048" on="1"/>
        <pt x="1024" y="1536" on="1"/>
        <pt x="512" y="1536" on="1"/>
        <pt x="512" y="0" on="1"/>
      </contour>
      <contour>
        <pt x="2048" y="3072" on="1"/>
        <pt x="2048" y="3584" on="1"/>
        <pt x="2560" y="3584" on="1"/>
        <pt x="2560" y="3072" on="1"/>
      </contour>
    </TTGlyph>
    <TTGlyph name="L" xMin="0" yMin="0" xMax="2560" yMax="3584">
      <contour>
        <pt x="0" y="0" on="1"/>
        <pt x="0" y="3584" on="1"/>
        <pt x="512" y="3584" on="1"/>
        <pt x="512" y="512" on="1"/>
        <pt x="2560" y="512" on="1"/>
        <pt x="2560" y="0" on="1"/>
      </contour>
    </TTGlyph>
    <TTGlyph name="M" xMin="0" yMin="0" xMax="2560" yMax="3584">
      <contour>
        <pt x="1024" y="2048" on="1"/>
        <pt x="1024" y="2560" on="1"/>
        <pt x="1536" y="2560" on="1"/>
        <pt x="1536" y="2048" on="1"/>
      </contour>
      <contour>
        <pt x="0" y="0" on="1"/>
        <pt x="0" y="3584" on="1"/>
        <pt x="512" y="3584" on="1"/>
        <pt x="512" y="3072" on="1"/>
        <pt x="1024" y="3072" on="1"/>
        <pt x="1024" y="2560" on="1"/>
        <pt x="512" y="2560" on="1"/>
        <pt x="512" y="0" on="1"/>
      </contour>
      <contour>
        <pt x="2048" y="0" on="1"/>
        <pt x="2048" y="2560" on="1"/>
        <pt x="1536" y="2560" on="1"/>
        <pt x="1536" y="3072" on="1"/>
        <pt x="2048" y="3072" on="1"/>
        <pt x="2048" y="3584" on="1"/>
        <pt x="2560" y="3584" on="1"/>
        <pt x="2560" y="0" on="1"/>
      </contour>
    </TTGlyph>
    <TTGlyph name="N" xMin="0" yMin="0" xMax="2560" yMax="3584">
      <contour>
        <pt x="1024" y="2048" on="1"/>
        <pt x="1024" y="2560" on="1"/>
        <pt x="1536" y="2560" on="1"/>
        <pt x="1536" y="2048" on="1"/>
      </contour>
      <contour>
        <pt x="0" y="0" on="1"/>
        <pt x="0" y="3584" on="1"/>
        <pt x="512" y="3584" on="1"/>
        <pt x="512" y="3072" on="1"/>
        <pt x="1024" y="3072" on="1"/>
        <pt x="1024" y="2560" on="1"/>
        <pt x="512" y="2560" on="1"/>
        <pt x="512" y="0" on="1"/>
      </contour>
      <contour>
        <pt x="2048" y="0" on="1"/>
        <pt x="2048" y="1536" on="1"/>
        <pt x="1536" y="1536" on="1"/>
        <pt x="1536" y="2048" on="1"/>
        <pt x="2048" y="2048" on="1"/>
        <pt x="2048" y="3584" on="1"/>
        <pt x="2560" y="3584" on="1"/>
        <pt x="2560" y="0" on="1"/>
      </contour>
    </TTGlyph>
    <TTGlyph name="O" xMin="0" yMin="0" xMax="2560" yMax="3584">
      <contour>
        <pt x="512" y="0" on="1"/>
        <pt x="512" y="512" on="1"/>
        <pt x="2048" y="512" on="1"/>
        <pt x="2048" y="0" on="1"/>
      </contour>
      <contour>
        <pt x="0" y="512" on="1"/>
        <pt x="0" y="3072" on="1"/>
        <pt x="512" y="3072" on="1"/>
        <pt x="512" y="512" on="1"/>
      </contour>
      <contour>
        <pt x="2048" y="512" on="1"/>
        <pt x="2048" y="3072" on="1"/>
        <pt x="2560" y="3072" on="1"/>
        <pt x="2560" y="512" on="1"/>
      </contour>
      <contour>
        <pt x="512" y="3072" on="1"/>
        <pt x="512" y="3584" on="1"/>
        <pt x="2048" y="3584" on="1"/>
        <pt x="2048" y="3072" on="1"/>
      </contour>
    </TTGlyph>
    <TTGlyph name="P" xMin="0" yMin="0" xMax="2560" yMax="3584">
      <contour>
        <pt x="2048" y="2048" on="1"/>
        <pt x="2048" y="3072" on="1"/>
        <pt x="2560" y="3072" on="1"/>
        <pt x="2560" y="2048" on="1"/>
      </contour>
      <contour>
        <pt x="0" y="0" on="1"/>
        <pt x="0" y="3584" on="1"/>
        <pt x="2048" y="3584" on="1"/>
        <pt x="2048" y="3072" on="1"/>
        <pt x="512" y="3072" on="1"/>
        <pt x="512" y="2048" on="1"/>
        <pt x="2048" y="2048" on="1"/>
        <pt x="2048" y="1536" on="1"/>
        <pt x="512" y="1536" on="1"/>
        <pt x="512" y="0" on="1"/>
      </contour>
    </TTGlyph>
    <TTGlyph name="Q" xMin="0" yMin="0" xMax="2560" yMax="3584">
      <contour>
        <pt x="512" y="0" on="1"/>
        <pt x="512" y="512" on="1"/>
        <pt x="1536" y="512" on="1"/>
        <pt x="1536" y="0" on="1"/>
      </contour>
      <contour>
        <pt x="2048" y="0" on="1"/>
        <pt x="2048" y="512" on="1"/>
        <pt x="2560" y="512" on="1"/>
        <pt x="2560" y="0" on="1"/>
      </contour>
      <contour>
        <pt x="1536" y="512" on="1"/>
        <pt x="1536" y="1024" on="1"/>
        <pt x="2048" y="1024" on="1"/>
        <pt x="2048" y="512" on="1"/>
      </contour>
      <contour>
        <pt x="1024" y="1024" on="1"/>
        <pt x="1024" y="1536" on="1"/>
        <pt x="1536" y="1536" on="1"/>
        <pt x="1536" y="1024" on="1"/>
      </contour>
      <contour>
        <pt x="0" y="512" on="1"/>
        <pt x="0" y="3072" on="1"/>
        <pt x="512" y="3072" on="1"/>
        <pt x="512" y="512" on="1"/>
      </contour>
      <contour>
        <pt x="2048" y="1024" on="1"/>
        <pt x="2048" y="3072" on="1"/>
        <pt x="2560" y="3072" on="1"/>
        <pt x="2560" y="1024" on="1"/>
      </contour>
      <contour>
        <pt x="512" y="3072" on="1"/>
        <pt x="512" y="3584" on="1"/>
        <pt x="2048" y="3584" on="1"/>
        <pt x="2048" y="3072" on="1"/>
      </contour>
    </TTGlyph>
    <TTGlyph name="R" xMin="0" yMin="0" xMax="2560" yMax="3584">
      <contour>
        <pt x="2048" y="0" on="1"/>
        <pt x="2048" y="1024" on="1"/>
        <pt x="2560" y="1024" on="1"/>
        <pt x="2560" y="0" on="1"/>
      </contour>
      <contour>
        <pt x="2048" y="2048" on="1"/>
        <pt x="2048" y="3072" on="1"/>
        <pt x="2560" y="3072" on="1"/>
        <pt x="2560" y="2048" on="1"/>
      </contour>
      <contour>
        <pt x="0" y="0" on="1"/>
        <pt x="0" y="3584" on="1"/>
        <pt x="2048" y="3584" on="1"/>
        <pt x="2048" y="3072" on="1"/>
        <pt x="512" y="3072" on="1"/>
        <pt x="512" y="2048" on="1"/>
        <pt x="2048" y="2048" on="1"/>
        <pt x="2048" y="1024" on="1"/>
        <pt x="1536" y="1024" on="1"/>
        <pt x="1536" y="1536" on="1"/>
        <pt x="512" y="1536" on="1"/>
        <pt x="512" y="0" on="1"/>
      </contour>
    </TTGlyph>
    <TTGlyph name="S" xMin="0" yMin="0" xMax="2560" yMax="3584">
      <contour>
        <pt x="512" y="0" on="1"/>
        <pt x="512" y="512" on="1"/>
        <pt x="2048" y="512" on="1"/>
        <pt x="2048" y="0" on="1"/>
      </contour>
      <contour>
        <pt x="0" y="512" on="1"/>
        <pt x="0" y="1024" on="1"/>
        <pt x="512" y="1024" on="1"/>
        <pt x="512" y="512" on="1"/>
      </contour>
      <contour>
        <pt x="2048" y="512" on="1"/>
        <pt x="2048" y="1536" on="1"/>
        <pt x="2560" y="1536" on="1"/>
        <pt x="2560" y="512" on="1"/>
      </contour>
      <contour>
        <pt x="512" y="1536" on="1"/>
        <pt x="512" y="2048" on="1"/>
        <pt x="2048" y="2048" on="1"/>
        <pt x="2048" y="1536" on="1"/>
      </contour>
      <contour>
        <pt x="0" y="2048" on="1"/>
        <pt x="0" y="3072" on="1"/>
        <pt x="512" y="3072" on="1"/>
        <pt x="512" y="2048" on="1"/>
      </contour>
      <contour>
        <pt x="2048" y="2560" on="1"/>
        <pt x="2048" y="3072" on="1"/>
        <pt x="2560" y="3072" on="1"/>
        <pt x="2560" y="2560" on="1"/>
      </contour>
      <contour>
        <pt x="512" y="3072" on="1"/>
        <pt x="512" y="3584" on="1"/>
        <pt x="2048" y="3584" on="1"/>
        <pt x="2048" y="3072" on="1"/>
      </contour>
    </TTGlyph>
    <TTGlyph name="T" xMin="0" yMin="0" xMax="2560" yMax="3584">
      <contour>
        <pt x="1024" y="0" on="1"/>
        <pt x="1024" y="3072" on="1"/>
        <pt x="0" y="3072" on="1"/>
        <pt x="0" y="3584" on="1"/>
        <pt x="2560" y="3584" on="1"/>
        <pt x="2560" y="3072" on="1"/>
        <pt x="1536" y="3072" on="1"/>
        <pt x="1536" y="0" on="1"/>
      </contour>
    </TTGlyph>
    <TTGlyph name="U" xMin="0" yMin="0" xMax="2560" yMax="3584">
      <contour>
        <pt x="512" y="0" on="1"/>
        <pt x="512" y="512" on="1"/>
        <pt x="2048" y="512" on="1"/>
        <pt x="2048" y="0" on="1"/>
      </contour>
      <contour>
        <pt x="0" y="512" on="1"/>
        <pt x="0" y="3584" on="1"/>
        <pt x="512" y="3584" on="1"/>
        <pt x="512" y="512" on="1"/>
      </contour>
      <contour>
        <pt x="2048" y="512" on="1"/>
        <pt x="2048" y="3584" on="1"/>
        <pt x="2560" y="3584" on="1"/>
        <pt x="2560" y="512" on="1"/>
      </contour>
    </TTGlyph>
    <TTGlyph name="V" xMin="0" yMin="0" xMax="2560" yMax="3584">
      <contour>
        <pt x="1024" y="0" on="1"/>
        <pt x="1024" y="512" on="1"/>
        <pt x="1536" y="512" on="1"/>
        <pt x="1536" y="0" on="1"/>
      </contour>
      <contour>
        <pt x="512" y="512" on="1"/>
        <pt x="512" y="1024" on="1"/>
        <pt x="1024" y="1024" on="1"/>
        <pt x="1024" y="512" on="1"/>
      </contour>
      <contour>
        <pt x="1536" y="512" on="1"/>
        <pt x="1536" y="1024" on="1"/>
        <pt x="2048" y="1024" on="1"/>
        <pt x="2048" y="512" on="1"/>
      </contour>
      <contour>
        <pt x="0" y="1024" on="1"/>
        <pt x="0" y="3584" on="1"/>
        <pt x="512" y="3584" on="1"/>
        <pt x="512" y="1024" on="1"/>
      </contour>
      <contour>
        <pt x="2048" y="1024" on="1"/>
        <pt x="2048" y="3584" on="1"/>
        <pt x="2560" y="3584" on="1"/>
        <pt x="2560" y="1024" on="1"/>
      </contour>
    </TTGlyph>
    <TTGlyph name="W" xMin="0" yMin="0" xMax="2560" yMax="3584">
      <contour>
        <pt x="512" y="0" on="1"/>
        <pt x="512" y="512" on="1"/>
        <pt x="1024" y="512" on="1"/>
        <pt x="1024" y="0" on="1"/>
      </contour>
      <contour>
        <pt x="1536" y="0" on="1"/>
        <pt x="1536" y="512" on="1"/>
        <pt x="2048" y="512" on="1"/>
        <pt x="2048" y="0" on="1"/>
      </contour>
      <contour>
        <pt x="1024" y="512" on="1"/>
        <pt x="1024" y="2560" on="1"/>
        <pt x="1536" y="2560" on="1"/>
        <pt x="1536" y="512" on="1"/>
      </contour>
      <contour>
        <pt x="0" y="512" on="1"/>
        <pt x="0" y="3584" on="1"/>
        <pt x="512" y="3584" on="1"/>
        <pt x="512" y="512" on="1"/>
      </contour>
      <contour>
        <pt x="2048" y="512" on="1"/>
        <pt x="2048" y="3584" on="1"/>
        <pt x="2560" y="3584" on="1"/>
        <pt x="2560" y="512" on="1"/>
      </contour>
    </TTGlyph>
    <TTGlyph name="X" xMin="0" yMin="0" xMax="2560" yMax="3584">
      <contour>
        <pt x="0" y="0" on="1"/>
        <pt x="0" y="1024" on="1"/>
        <pt x="512" y="1024" on="1"/>
        <pt x="512" y="0" on="1"/>
      </contour>
      <contour>
        <pt x="2048" y="0" on="1"/>
        <pt x="2048" y="1024" on="1"/>
        <pt x="2560" y="1024" on="1"/>
        <pt x="2560" y="0" on="1"/>
      </contour>
      <contour>
        <pt x="512" y="1024" on="1"/>
        <pt x="512" y="1536" on="1"/>
        <pt x="1024" y="1536" on="1"/>
        <pt x="1024" y="1024" on="1"/>
      </contour>
      <contour>
        <pt x="1536" y="1024" on="1"/>
        <pt x="1536" y="1536" on="1"/>
        <pt x="2048" y="1536" on="1"/>
        <pt x="2048" y="1024" on="1"/>
      </contour>
      <contour>
        <pt x="1024" y="1536" on="1"/>
        <pt x="1024" y="2048" on="1"/>
        <pt x="1536" y="2048" on="1"/>
        <pt x="1536" y="1536" on="1"/>
      </contour>
      <contour>
        <pt x="512" y="2048" on="1"/>
        <pt x="512" y="2560" on="1"/>
        <pt x="1024" y="2560" on="1"/>
        <pt x="1024" y="2048" on="1"/>
      </contour>
      <contour>
        <pt x="1536" y="2048" on="1"/>
        <pt x="1536" y="2560" on="1"/>
        <pt x="2048" y="2560" on="1"/>
        <pt x="2048" y="2048" on="1"/>
      </contour>
      <contour>
        <pt x="0" y="2560" on="1"/>
        <pt x="0" y="3584" on="1"/>
        <pt x="512" y="3584" on="1"/>
        <pt x="512" y="2560" on="1"/>
      </contour>
      <contour>
        <pt x="2048" y="2560" on="1"/>
        <pt x="2048" y="3584" on="1"/>
        <pt x="2560" y="3584" on="1"/>
        <pt x="2560" y="2560" on="1"/>
      </contour>
    </TTGlyph>
    <TTGlyph name="Y" xMin="0" yMin="0" xMax="2560" yMax="3584">
      <contour>
        <pt x="1024" y="0" on="1"/>
        <pt x="1024" y="1536" on="1"/>
        <pt x="1536" y="1536" on="1"/>
        <pt x="1536" y="0" on="1"/>
      </contour>
      <contour>
        <pt x="512" y="1536" on="1"/>
        <pt x="512" y="2048" on="1"/>
        <pt x="1024" y="2048" on="1"/>
        <pt x="1024" y="1536" on="1"/>
      </contour>
      <contour>
        <pt x="1536" y="1536" on="1"/>
        <pt x="1536" y="2048" on="1"/>
        <pt x="2048" y="2048" on="1"/>
        <pt x="2048" y="1536" on="1"/>
      </contour>
      <contour>
        <pt x="0" y="2048" on="1"/>
        <pt x="0" y="3584" on="1"/>
        <pt x="512" y="3584" on="1"/>
        <pt x="512" y="2048" on="1"/>
      </contour>
      <contour>
        <pt x="2048" y="2048" on="1"/>
        <pt x="2048" y="3584" on="1"/>
        <pt x="2560" y="3584" on="1"/>
        <pt x="2560" y="2048" on="1"/>
      </contour>
    </TTGlyph>
    <TTGlyph name="Z" xMin="0" yMin="0" xMax="2048" yMax="3584">
      <contour>
        <pt x="0" y="0" on="1"/>
        <pt x="0" y="1536" on="1"/>
        <pt x="512" y="1536" on="1"/>
        <pt x="512" y="512" on="1"/>
        <pt x="2048" y="512" on="1"/>
        <pt x="2048" y="0" on="1"/>
      </contour>
      <contour>
        <pt x="512" y="1536" on="1"/>
        <pt x="512" y="2048" on="1"/>
        <pt x="1024" y="2048" on="1"/>
        <pt x="1024" y="1536" on="1"/>
      </contour>
      <contour>
        <pt x="1024" y="2048" on="1"/>
        <pt x="1024" y="2560" on="1"/>
        <pt x="1536" y="2560" on="1"/>
        <pt x="1536" y="2048" on="1"/>
      </contour>
      <contour>
        <pt x="1536" y="2560" on="1"/>
        <pt x="1536" y="3072" on="1"/>
        <pt x="0" y="3072" on="1"/>
        <pt x="0" y="3584" on="1"/>
        <pt x="2048" y="3584" on="1"/>
        <pt x="2048" y="2560" on="1"/>
      </contour>
    </TTGlyph>
    <TTGlyph name="a" xMin="0" yMin="0" xMax="2560" yMax="2560">
      <contour>
        <pt x="0" y="512" on="1"/>
        <pt x="0" y="1024" on="1"/>
        <pt x="512" y="1024" on="1"/>
        <pt x="512" y="512" on="1"/>
      </contour>
      <contour>
        <pt x="512" y="0" on="1"/>
        <pt x="512" y="512" on="1"/>
        <pt x="2048" y="512" on="1"/>
        <pt x="2048" y="1024" on="1"/>
        <pt x="512" y="1024" on="1"/>
        <pt x="512" y="1536" on="1"/>
        <pt x="2048" y="1536" on="1"/>
        <pt x="2048" y="2048" on="1"/>
        <pt x="2560" y="2048" on="1"/>
        <pt x="2560" y="0" on="1"/>
      </contour>
      <contour>
        <pt x="0" y="2048" on="1"/>
        <pt x="0" y="2560" on="1"/>
        <pt x="2048" y="2560" on="1"/>
        <pt x="2048" y="2048" on="1"/>
      </contour>
    </TTGlyph>
    <TTGlyph name="ampersand" xMin="0" yMin="0" xMax="2560" yMax="3584">
      <contour>
        <pt x="512" y="0" on="1"/>
        <pt x="512" y="512" on="1"/>
        <pt x="1536" y="512" on="1"/>
        <pt x="1536" y="0" on="1"/>
      </contour>
      <contour>
        <pt x="2048" y="0" on="1"/>
        <pt x="2048" y="512" on="1"/>
        <pt x="2560" y="512" on="1"/>
        <pt x="2560" y="0" on="1"/>
      </contour>
      <contour>
        <pt x="1536" y="512" on="1"/>
        <pt x="1536" y="1024" on="1"/>
        <pt x="2048" y="1024" on="1"/>
        <pt x="2048" y="512" on="1"/>
      </contour>
      <contour>
        <pt x="0" y="512" on="1"/>
        <pt x="0" y="1536" on="1"/>
        <pt x="512" y="1536" on="1"/>
        <pt x="512" y="512" on="1"/>
      </contour>
      <contour>
        <pt x="1024" y="1024" on="1"/>
        <pt x="1024" y="1536" on="1"/>
        <pt x="1536" y="1536" on="1"/>
        <pt x="1536" y="1024" on="1"/>
      </contour>
      <contour>
        <pt x="2048" y="1024" on="1"/>
        <pt x="2048" y="1536" on="1"/>
        <pt x="2560" y="1536" on="1"/>
        <pt x="2560" y="1024" on="1"/>
      </contour>
      <contour>
        <pt x="512" y="1536" on="1"/>
        <pt x="512" y="2048" on="1"/>
        <pt x="1024" y="2048" on="1"/>
        <pt x="1024" y="1536" on="1"/>
      </contour>
      <contour>
        <pt x="0" y="2048" on="1"/>
        <pt x="0" y="3072" on="1"/>
        <pt x="512" y="3072" on="1"/>
        <pt x="512" y="2048" on="1"/>
      </contour>
      <contour>
        <pt x="1024" y="2048" on="1"/>
        <pt x="1024" y="3072" on="1"/>
        <pt x="1536" y="3072" on="1"/>
        <pt x="1536" y="2048" on="1"/>
      </contour>
      <contour>
        <pt x="512" y="3072" on="1"/>
        <pt x="512" y="3584" on="1"/>
        <pt x="1024" y="3584" on="1"/>
        <pt x="1024" y="3072" on="1"/>
      </contour>
    </TTGlyph>
    <TTGlyph name="asciicircum" xMin="0" yMin="2048" xMax="2560" yMax="3584">
      <contour>
        <pt x="0" y="2048" on="1"/>
        <pt x="0" y="2560" on="1"/>
        <pt x="512" y="2560" on="1"/>
        <pt x="512" y="2048" on="1"/>
      </contour>
      <contour>
        <pt x="2048" y="2048" on="1"/>
        <pt x="2048" y="2560" on="1"/>
        <pt x="2560" y="2560" on="1"/>
        <pt x="2560" y="2048" on="1"/>
      </contour>
      <contour>
        <pt x="512" y="2560" on="1"/>
        <pt x="512" y="3072" on="1"/>
        <pt x="1024" y="3072" on="1"/>
        <pt x="1024" y="2560" on="1"/>
      </contour>
      <contour>
        <pt x="1536" y="2560" on="1"/>
        <pt x="1536" y="3072" on="1"/>
        <pt x="2048" y="3072" on="1"/>
        <pt x="2048" y="2560" on="1"/>
      </contour>
      <contour>
        <pt x="1024" y="3072" on="1"/>
        <pt x="1024" y="3584" on="1"/>
        <pt x="1536" y="3584" on="1"/>
        <pt x="1536" y="3072" on="1"/>
      </contour>
    </TTGlyph>
    <TTGlyph name="asciitilde" xMin="0" yMin="2560" xMax="2048" yMax="3584">
      <contour>
        <pt x="0" y="2560" on="1"/>
        <pt x="0" y="3072" on="1"/>
        <pt x="512" y="3072" on="1"/>
        <pt x="512" y="2560" on="1"/>
      </contour>
      <contour>
        <pt x="1024" y="2560" on="1"/>
        <pt x="1024" y="3072" on="1"/>
        <pt x="1536" y="3072" on="1"/>
        <pt x="1536" y="2560" on="1"/>
      </contour>
      <contour>
        <pt x="512" y="3072" on="1"/>
        <pt x="512" y="3584" on="1"/>
        <pt x="1024" y="3584" on="1"/>
        <pt x="1024" y="3072" on="1"/>
      </contour>
      <contour>
        <pt x="1536" y="3072" on="1"/>
        <pt x="1536" y="3584" on="1"/>
        <pt x="2048" y="3584" on="1"/>
        <pt x="2048" y="3072" on="1"/>
      </contour>
    </TTGlyph>
    <TTGlyph name="asterisk" xMin="0" yMin="512" xMax="2560" yMax="3072">
      <contour>
        <pt x="512" y="512" on="1"/>
        <pt x="512" y="1536" on="1"/>
        <pt x="0" y="1536" on="1"/>
        <pt x="0" y="2048" on="1"/>
        <pt x="512" y="2048" on="1"/>
        <pt x="512" y="3072" on="1"/>
        <pt x="1024" y="3072" on="1"/>
        <pt x="1024" y="2560" on="1"/>
        <pt x="1536" y="2560" on="1"/>
        <pt x="1536" y="3072" on="1"/>
        <pt x="2048" y="3072" on="1"/>
        <pt x="2048" y="2048" on="1"/>
        <pt x="2560" y="2048" on="1"/>
        <pt x="2560" y="1536" on="1"/>
        <pt x="2048" y="1536" on="1"/>
        <pt x="2048" y="512" on="1"/>
        <pt x="1536" y="512" on="1"/>
        <pt x="1536" y="1024" on="1"/>
        <pt x="1024" y="1024" on="1"/>
        <pt x="1024" y="512" on="1"/>
      </contour>
    </TTGlyph>
    <TTGlyph name="at" xMin="0" yMin="0" xMax="2560" yMax="3584">
      <contour>
        <pt x="512" y="0" on="1"/>
        <pt x="512" y="512" on="1"/>
        <pt x="2048" y="512" on="1"/>
        <pt x="2048" y="0" on="1"/>
      </contour>
      <contour>
        <pt x="2048" y="1536" on="1"/>
        <pt x="2048" y="2048" on="1"/>
        <pt x="1536" y="2048" on="1"/>
        <pt x="1536" y="1536" on="1"/>
      </contour>
      <contour>
        <pt x="0" y="512" on="1"/>
        <pt x="0" y="3072" on="1"/>
        <pt x="512" y="3072" on="1"/>
        <pt x="512" y="512" on="1"/>
      </contour>
      <contour>
        <pt x="1024" y="1024" on="1"/>
        <pt x="1024" y="2560" on="1"/>
        <pt x="2048" y="2560" on="1"/>
        <pt x="2048" y="3072" on="1"/>
        <pt x="2560" y="3072" on="1"/>
        <pt x="2560" y="1024" on="1"/>
      </contour>
      <contour>
        <pt x="512" y="3072" on="1"/>
        <pt x="512" y="3584" on="1"/>
        <pt x="2048" y="3584" on="1"/>
        <pt x="2048" y="3072" on="1"/>
      </contour>
    </TTGlyph>
    <TTGlyph name="b" xMin="0" yMin="0" xMax="2560" yMax="3584">
      <contour>
        <pt x="2048" y="512" on="1"/>
        <pt x="2048" y="2048" on="1"/>
        <pt x="2560" y="2048" on="1"/>
        <pt x="2560" y="512" on="1"/>
      </contour>
      <contour>
        <pt x="0" y="0" on="1"/>
        <pt x="0" y="3584" on="1"/>
        <pt x="512" y="3584" on="1"/>
        <pt x="512" y="2560" on="1"/>
        <pt x="2048" y="2560" on="1"/>
        <pt x="2048" y="2048" on="1"/>
        <pt x="512" y="2048" on="1"/>
        <pt x="512" y="512" on="1"/>
        <pt x="2048" y="512" on="1"/>
        <pt x="2048" y="0" on="1"/>
      </contour>
    </TTGlyph>
    <TTGlyph name="backslash" xMin="0" yMin="512" xMax="2560" yMax="3072">
      <contour>
        <pt x="2048" y="512" on="1"/>
        <pt x="2048" y="1024" on="1"/>
        <pt x="2560" y="1024" on="1"/>
        <pt x="2560" y="512" on="1"/>
      </contour>
      <contour>
        <pt x="1536" y="1024" on="1"/>
        <pt x="1536" y="1536" on="1"/>
        <pt x="2048" y="1536" on="1"/>
        <pt x="2048" y="1024" on="1"/>
      </contour>
      <contour>
        <pt x="1024" y="1536" on="1"/>
        <pt x="1024" y="2048" on="1"/>
        <pt x="1536" y="2048" on="1"/>
        <pt x="1536" y="1536" on="1"/>
      </contour>
      <contour>
        <pt x="512" y="2048" on="1"/>
        <pt x="512" y="2560" on="1"/>
        <pt x="1024" y="2560" on="1"/>
        <pt x="1024" y="2048" on="1"/>
      </contour>
      <contour>
        <pt x="0" y="2560" on="1"/>
        <pt x="0" y="3072" on="1"/>
        <pt x="512" y="3072" on="1"/>
        <pt x="512" y="2560" on="1"/>
      </contour>
    </TTGlyph>
    <TTGlyph name="bar" xMin="1024" yMin="0" xMax="1536" yMax="3584">
      <contour>
        <pt x="1024" y="0" on="1"/>
        <pt x="1024" y="3584" on="1"/>
        <pt x="1536" y="3584" on="1"/>
        <pt x="1536" y="0" on="1"/>
      </contour>
    </TTGlyph>
    <TTGlyph name="braceleft" xMin="0" yMin="0" xMax="2048" yMax="3584">
      <contour>
        <pt x="1024" y="0" on="1"/>
        <pt x="1024" y="512" on="1"/>
        <pt x="2048" y="512" on="1"/>
        <pt x="2048" y="0" on="1"/>
      </contour>
      <contour>
        <pt x="512" y="512" on="1"/>
        <pt x="512" y="1536" on="1"/>
        <pt x="0" y="1536" on="1"/>
        <pt x="0" y="2048" on="1"/>
        <pt x="512" y="2048" on="1"/>
        <pt x="512" y="3072" on="1"/>
        <pt x="1024" y="3072" on="1"/>
        <pt x="1024" y="512" on="1"/>
      </contour>
      <contour>
        <pt x="1024" y="3072" on="1"/>
        <pt x="1024" y="3584" on="1"/>
        <pt x="2048" y="3584" on="1"/>
        <pt x="2048" y="3072" on="1"/>
      </contour>
    </TTGlyph>
    <TTGlyph name="braceright" xMin="512" yMin="0" xMax="2560" yMax="3584">
      <contour>
        <pt x="512" y="0" on="1"/>
        <pt x="512" y="512" on="1"/>
        <pt x="1536" y="512" on="1"/>
        <pt x="1536" y="0" on="1"/>
      </contour>
      <contour>
        <pt x="1536" y="512" on="1"/>
        <pt x="1536" y="3072" on="1"/>
        <pt x="2048" y="3072" on="1"/>
        <pt x="2048" y="2048" on="1"/>
        <pt x="2560" y="2048" on="1"/>
        <pt x="2560" y="1536" on="1"/>
        <pt x="2048" y="1536" on="1"/>
        <pt x="2048" y="512" on="1"/>
      </contour>
      <contour>
        <pt x="512" y="3072" on="1"/>
        <pt x="512" y="3584" on="1"/>
        <pt x="1536" y="3584" on="1"/>
        <pt x="1536" y="3072" on="1"/>
      </contour>
    </TTGlyph>
    <TTGlyph name="bracketleft" xMin="512" yMin="0" xMax="2048" yMax="3584">
      <contour>
        <pt x="512" y="0" on="1"/>
        <pt x="512" y="3584" on="1"/>
        <pt x="2048" y="3584" on="1"/>
        <pt x="2048" y="3072" on="1"/>
        <pt x="1024" y="3072" on="1"/>
        <pt x="1024" y="512" on="1"/>
        <pt x="2048" y="512" on="1"/>
        <pt x="2048" y="0" on="1"/>
      </contour>
    </TTGlyph>
    <TTGlyph name="bracketright" xMin="512" yMin="0" xMax="2048" yMax="3584">
      <contour>
        <pt x="512" y="0" on="1"/>
        <pt x="512" y="512" on="1"/>
        <pt x="1536" y="512" on="1"/>
        <pt x="1536" y="3072" on="1"/>
        <pt x="512" y="3072" on="1"/>
        <pt x="512" y="3584" on="1"/>
        <pt x="2048" y="3584" on="1"/>
        <pt x="2048" y="0" on="1"/>
      </contour>
    </TTGlyph>
    <TTGlyph name="c" xMin="0" yMin="0" xMax="2560" yMax="2560">
      <contour>
        <pt x="512" y="0" on="1"/>
        <pt x="512" y="512" on="1"/>
        <pt x="2048" y="512" on="1"/>
        <pt x="2048" y="0" on="1"/>
      </contour>
      <contour>
        <pt x="2048" y="512" on="1"/>
        <pt x="2048" y="1024" on="1"/>
        <pt x="2560" y="1024" on="1"/>
        <pt x="2560" y="512" on="1"/>
      </contour>
      <contour>
        <pt x="0" y="512" on="1"/>
        <pt x="0" y="2048" on="1"/>
        <pt x="512" y="2048" on="1"/>
        <pt x="512" y="512" on="1"/>
      </contour>
      <contour>
        <pt x="2048" y="1536" on="1"/>
        <pt x="2048" y="2048" on="1"/>
        <pt x="2560" y="2048" on="1"/>
        <pt x="2560" y="1536" on="1"/>
      </contour>
      <contour>
        <pt x="512" y="2048" on="1"/>
        <pt x="512" y="2560" on="1"/>
        <pt x="2048" y="2560" on="1"/>
        <pt x="2048" y="2048" on="1"/>
      </contour>
    </TTGlyph>
    <TTGlyph name="colon" xMin="512" yMin="0" xMax="1536" yMax="2560">
      <contour>
        <pt x="512" y="0" on="1"/>
        <pt x="512" y="1024" on="1"/>
        <pt x="1536" y="1024" on="1"/>
        <pt x="1536" y="0" on="1"/>
      </contour>
      <contour>
        <pt x="512" y="1536" on="1"/>
        <pt x="512" y="2560" on="1"/>
        <pt x="1536" y="2560" on="1"/>
        <pt x="1536" y="1536" on="1"/>
      </contour>
    </TTGlyph>
    <TTGlyph name="comma" xMin="512" yMin="-512" xMax="1536" yMax="1024">
      <contour>
        <pt x="512" y="-512" on="1"/>
        <pt x="512" y="1024" on="1"/>
        <pt x="1536" y="1024" on="1"/>
        <pt x="1536" y="0" on="1"/>
        <pt x="1024" y="0" on="1"/>
        <pt x="1024" y="-512" on="1"/>
      </contour>
    </TTGlyph>
    <TTGlyph name="d" xMin="0" yMin="0" xMax="2560" yMax="3584">
      <contour>
        <pt x="0" y="512" on="1"/>
        <pt x="0" y="2048" on="1"/>
        <pt x="512" y="2048" on="1"/>
        <pt x="512" y="512" on="1"/>
      </contour>
      <contour>
        <pt x="512" y="0" on="1"/>
        <pt x="512" y="512" on="1"/>
        <pt x="2048" y="512" on="1"/>
        <pt x="2048" y="2048" on="1"/>
        <pt x="512" y="2048" on="1"/>
        <pt x="512" y="2560" on="1"/>
        <pt x="2048" y="2560" on="1"/>
        <pt x="2048" y="3584" on="1"/>
        <pt x="2560" y="3584" on="1"/>
        <pt x="2560" y="0" on="1"/>
      </contour>
    </TTGlyph>
    <TTGlyph name="dollar" xMin="0" yMin="0" xMax="2048" yMax="3584">
      <contour>
        <pt x="1024" y="0" on="1"/>
        <pt x="1024" y="512" on="1"/>
        <pt x="0" y="512" on="1"/>
        <pt x="0" y="1024" on="1"/>
        <pt x="1536" y="1024" on="1"/>
        <pt x="1536" y="0" on="1"/>
      </contour>
      <contour>
        <pt x="1536" y="1024" on="1"/>
        <pt x="1536" y="1536" on="1"/>
        <pt x="2048" y="1536" on="1"/>
        <pt x="2048" y="1024" on="1"/>
      </contour>
      <contour>
        <pt x="512" y="1536" on="1"/>
        <pt x="512" y="2048" on="1"/>
        <pt x="1536" y="2048" on="1"/>
        <pt x="1536" y="1536" on="1"/>
      </contour>
      <contour>
        <pt x="0" y="2048" on="1"/>
        <pt x="0" y="2560" on="1"/>
        <pt x="512" y="2560" on="1"/>
        <pt x="512" y="2048" on="1"/>
      </contour>
      <contour>
        <pt x="512" y="2560" on="1"/>
        <pt x="512" y="3584" on="1"/>
        <pt x="1024" y="3584" on="1"/>
        <pt x="1024" y="3072" on="1"/>
        <pt x="2048" y="3072" on="1"/>
        <pt x="2048" y="2560" on="1"/>
      </contour>
    </TTGlyph>
    <TTGlyph name="e" xMin="0" yMin="0" xMax="2560" yMax="2560">
      <contour>
        <pt x="512" y="0" on="1"/>
        <pt x="512" y="512" on="1"/>
        <pt x="2048" y="512" on="1"/>
        <pt x="2048" y="0" on="1"/>
      </contour>
      <contour>
        <pt x="0" y="512" on="1"/>
        <pt x="0" y="2048" on="1"/>
        <pt x="512" y="2048" on="1"/>
        <pt x="512" y="1536" on="1"/>
        <pt x="2048" y="1536" on="1"/>
        <pt x="2048" y="1024" on="1"/>
        <pt x="512" y="1024" on="1"/>
        <pt x="512" y="512" on="1"/>
      </contour>
      <contour>
        <pt x="2048" y="1536" on="1"/>
        <pt x="2048" y="2048" on="1"/>
        <pt x="2560" y="2048" on="1"/>
        <pt x="2560" y="1536" on="1"/>
      </contour>
      <contour>
        <pt x="512" y="2048" on="1"/>
        <pt x="512" y="2560" on="1"/>
        <pt x="2048" y="2560" on="1"/>
        <pt x="2048" y="2048" on="1"/>
      </contour>
    </TTGlyph>
    <TTGlyph name="eight" xMin="0" yMin="0" xMax="2560" yMax="3584">
      <contour>
        <pt x="512" y="0" on="1"/>
        <pt x="512" y="512" on="1"/>
        <pt x="2048" y="512" on="1"/>
        <pt x="2048" y="0" on="1"/>
      </contour>
      <contour>
        <pt x="0" y="512" on="1"/>
        <pt x="0" y="1536" on="1"/>
        <pt x="512" y="1536" on="1"/>
        <pt x="512" y="512" on="1"/>
      </contour>
      <contour>
        <pt x="2048" y="512" on="1"/>
        <pt x="2048" y="1536" on="1"/>
        <pt x="2560" y="1536" on="1"/>
        <pt x="2560" y="512" on="1"/>
      </contour>
      <contour>
        <pt x="512" y="1536" on="1"/>
        <pt x="512" y="2048" on="1"/>
        <pt x="2048" y="2048" on="1"/>
        <pt x="2048" y="1536" on="1"/>
      </contour>
      <contour>
        <pt x="0" y="2048" on="1"/>
        <pt x="0" y="3072" on="1"/>
        <pt x="512" y="3072" on="1"/>
        <pt x="512" y="2048" on="1"/>
      </contour>
      <contour>
        <pt x="2048" y="2048" on="1"/>
        <pt x="2048" y="3072" on="1"/>
        <pt x="2560" y="3072" on="1"/>
        <pt x="2560" y="2048" on="1"/>
      </contour>
      <contour>
        <pt x="512" y="3072" on="1"/>
        <pt x="512" y="3584" on="1"/>
        <pt x="2048" y="3584" on="1"/>
        <pt x="2048" y="3072" on="1"/>
      </contour>
    </TTGlyph>
    <TTGlyph name="equal" xMin="512" yMin="512" xMax="2560" yMax="2560">
      <contour>
        <pt x="512" y="512" on="1"/>
        <pt x="512" y="1024" on="1"/>
        <pt x="2560" y="1024" on="1"/>
        <pt x="2560" y="512" on="1"/>
      </contour>
      <contour>
        <pt x="512" y="2048" on="1"/>
        <pt x="512" y="2560" on="1"/>
        <pt x="2560" y="2560" on="1"/>
        <pt x="2560" y="2048" on="1"/>
      </contour>
    </TTGlyph>
    <TTGlyph name="exclam" xMin="512" yMin="0" xMax="2048" yMax="3584">
      <contour>
        <pt x="1024" y="0" on="1"/>
        <pt x="1024" y="512" on="1"/>
        <pt x="1536" y="512" on="1"/>
        <pt x="1536" y="0" on="1"/>
      </contour>
      <contour>
        <pt x="1024" y="1024" on="1"/>
        <pt x="1024" y="2048" on="1"/>
        <pt x="512" y="2048" on="1"/>
        <pt x="512" y="3072" on="1"/>
        <pt x="1024" y="3072" on="1"/>
        <pt x="1024" y="3584" on="1"/>
        <pt x="1536" y="3584" on="1"/>
        <pt x="1536" y="3072" on="1"/>
        <pt x="2048" y="3072" on="1"/>
        <pt x="2048" y="2048" on="1"/>
        <pt x="1536" y="2048" on="1"/>
        <pt x="1536" y="1024" on="1"/>
      </contour>
    </TTGlyph>
    <TTGlyph name="f" xMin="0" yMin="0" xMax="2048" yMax="3584">
      <contour>
        <pt x="512" y="0" on="1"/>
        <pt x="512" y="1536" on="1"/>
        <pt x="0" y="1536" on="1"/>
        <pt x="0" y="2048" on="1"/>
        <pt x="512" y="2048" on="1"/>
        <pt x="512" y="3072" on="1"/>
        <pt x="1024" y="3072" on="1"/>
        <pt x="1024" y="2048" on="1"/>
        <pt x="2048" y="2048" on="1"/>
        <pt x="2048" y="1536" on="1"/>
        <pt x="1024" y="1536" on="1"/>
        <pt x="1024" y="0" on="1"/>
      </contour>
      <contour>
        <pt x="1024" y="3072" on="1"/>
        <pt x="1024" y="3584" on="1"/>
        <pt x="2048" y="3584" on="1"/>
        <pt x="2048" y="3072" on="1"/>
      </contour>
    </TTGlyph>
    <TTGlyph name="five" xMin="0" yMin="0" xMax="2560" yMax="3584">
      <contour>
        <pt x="512" y="0" on="1"/>
        <pt x="512" y="512" on="1"/>
        <pt x="2048" y="512" on="1"/>
        <pt x="2048" y="0" on="1"/>
      </contour>
      <contour>
        <pt x="0" y="512" on="1"/>
        <pt x="0" y="1024" on="1"/>
        <pt x="512" y="1024" on="1"/>
        <pt x="512" y="512" on="1"/>
      </contour>
      <contour>
        <pt x="2048" y="512" on="1"/>
        <pt x="2048" y="1536" on="1"/>
        <pt x="2560" y="1536" on="1"/>
        <pt x="2560" y="512" on="1"/>
      </contour>
      <contour>
        <pt x="0" y="1536" on="1"/>
        <pt x="0" y="3584" on="1"/>
        <pt x="2560" y="3584" on="1"/>
        <pt x="2560" y="3072" on="1"/>
        <pt x="512" y="3072" on="1"/>
        <pt x="512" y="2048" on="1"/>
        <pt x="2048" y="2048" on="1"/>
        <pt x="2048" y="1536" on="1"/>
      </contour>
    </TTGlyph>
    <TTGlyph name="four" xMin="0" yMin="0" xMax="2560" yMax="3584">
      <contour>
        <pt x="512" y="2048" on="1"/>
        <pt x="512" y="2560" on="1"/>
        <pt x="1024" y="2560" on="1"/>
        <pt x="1024" y="2048" on="1"/>
      </contour>
      <contour>
        <pt x="1536" y="0" on="1"/>
        <pt x="1536" y="1024" on="1"/>
        <pt x="0" y="1024" on="1"/>
        <pt x="0" y="2048" on="1"/>
        <pt x="512" y="2048" on="1"/>
        <pt x="512" y="1536" on="1"/>
        <pt x="1536" y="1536" on="1"/>
        <pt x="1536" y="2560" on="1"/>
        <pt x="1024" y="2560" on="1"/>
        <pt x="1024" y="3072" on="1"/>
        <pt x="1536" y="3072" on="1"/>
        <pt x="1536" y="3584" on="1"/>
        <pt x="2048" y="3584" on="1"/>
        <pt x="2048" y="1536" on="1"/>
        <pt x="2560" y="1536" on="1"/>
        <pt x="2560" y="1024" on="1"/>
        <pt x="2048" y="1024" on="1"/>
        <pt x="2048" y="0" on="1"/>
      </contour>
    </TTGlyph>
    <TTGlyph name="g" xMin="0" yMin="-512" xMax="2560" yMax="2560">
      <contour>
        <pt x="512" y="-512" on="1"/>
        <pt x="512" y="0" on="1"/>
        <pt x="2048" y="0" on="1"/>
        <pt x="2048" y="-512" on="1"/>
      </contour>
      <contour>
        <pt x="0" y="1024" on="1"/>
        <pt x="0" y="2048" on="1"/>
        <pt x="512" y="2048" on="1"/>
        <pt x="512" y="1024" on="1"/>
      </contour>
      <contour>
        <pt x="2048" y="0" on="1"/>
        <pt x="2048" y="512" on="1"/>
        <pt x="512" y="512" on="1"/>
        <pt x="512" y="1024" on="1"/>
        <pt x="2048" y="1024" on="1"/>
        <pt x="2048" y="2048" on="1"/>
        <pt x="512" y="2048" on="1"/>
        <pt x="512" y="2560" on="1"/>
        <pt x="2560" y="2560" on="1"/>
        <pt x="2560" y="0" on="1"/>
      </contour>
    </TTGlyph>
    <TTGlyph name="grave" xMin="512" yMin="2048" xMax="1536" yMax="3584">
      <contour>
        <pt x="1024" y="2048" on="1"/>
        <pt x="1024" y="2560" on="1"/>
        <pt x="512" y="2560" on="1"/>
        <pt x="512" y="3584" on="1"/>
        <pt x="1536" y="3584" on="1"/>
        <pt x="1536" y="2048" on="1"/>
      </contour>
    </TTGlyph>
    <TTGlyph name="greater" xMin="512" yMin="0" xMax="2560" yMax="3584">
      <contour>
        <pt x="512" y="0" on="1"/>
        <pt x="512" y="512" on="1"/>
        <pt x="1024" y="512" on="1"/>
        <pt x="1024" y="0" on="1"/>
      </contour>
      <contour>
        <pt x="1024" y="512" on="1"/>
        <pt x="1024" y="1024" on="1"/>
        <pt x="1536" y="1024" on="1"/>
        <pt x="1536" y="512" on="1"/>
      </contour>
      <contour>
        <pt x="1536" y="1024" on="1"/>
        <pt x="1536" y="1536" on="1"/>
        <pt x="2048" y="1536" on="1"/>
        <pt x="2048" y="1024" on="1"/>
      </contour>
      <contour>
        <pt x="2048" y="1536" on="1"/>
        <pt x="2048" y="2048" on="1"/>
        <pt x="2560" y="2048" on="1"/>
        <pt x="2560" y="1536" on="1"/>
      </contour>
      <contour>
        <pt x="1536" y="2048" on="1"/>
        <pt x="1536" y="2560" on="1"/>
        <pt x="2048" y="2560" on="1"/>
        <pt x="2048" y="2048" on="1"/>
      </contour>
      <contour>
        <pt x="1024" y="2560" on="1"/>
        <pt x="1024" y="3072" on="1"/>
        <pt x="1536" y="3072" on="1"/>
        <pt x="1536" y="2560" on="1"/>
      </contour>
      <contour>
        <pt x="512" y="3072" on="1"/>
        <pt x="512" y="3584" on="1"/>
        <pt x="1024" y="3584" on="1"/>
        <pt x="1024" y="3072" on="1"/>
      </contour>
    </TTGlyph>
    <TTGlyph name="h" xMin="0" yMin="0" xMax="2048" yMax="3584">
      <contour>
        <pt x="1536" y="0" on="1"/>
        <pt x="1536" y="2048" on="1"/>
        <pt x="2048" y="2048" on="1"/>
        <pt x="2048" y="0" on="1"/>
      </contour>
      <contour>
        <pt x="0" y="0" on="1"/>
        <pt x="0" y="3584" on="1"/>
        <pt x="512" y="3584" on="1"/>
        <pt x="512" y="2560" on="1"/>
        <pt x="1536" y="2560" on="1"/>
        <pt x="1536" y="2048" on="1"/>
        <pt x="512" y="2048" on="1"/>
        <pt x="512" y="0" on="1"/>
      </contour>
    </TTGlyph>
    <TTGlyph name="hyphen" xMin="0" yMin="1536" xMax="2560" yMax="2048">
      <contour>
        <pt x="0" y="1536" on="1"/>
        <pt x="0" y="2048" on="1"/>
        <pt x="2560" y="2048" on="1"/>
        <pt x="2560" y="1536" on="1"/>
      </contour>
    </TTGlyph>
    <TTGlyph name="i" xMin="1024" yMin="0" xMax="2048" yMax="3584">
      <contour>
        <pt x="1024" y="0" on="1"/>
        <pt x="1024" y="2560" on="1"/>
        <pt x="1536" y="2560" on="1"/>
        <pt x="1536" y="512" on="1"/>
        <pt x="2048" y="512" on="1"/>
        <pt x="2048" y="0" on="1"/>
      </contour>
      <contour>
        <pt x="1024" y="3072" on="1"/>
        <pt x="1024" y="3584" on="1"/>
        <pt x="1536" y="3584" on="1"/>
        <pt x="1536" y="3072" on="1"/>
      </contour>
    </TTGlyph>
    <TTGlyph name="j" xMin="0" yMin="-512" xMax="2048" yMax="3584">
      <contour>
        <pt x="512" y="-512" on="1"/>
        <pt x="512" y="0" on="1"/>
        <pt x="1536" y="0" on="1"/>
        <pt x="1536" y="-512" on="1"/>
      </contour>
      <contour>
        <pt x="0" y="0" on="1"/>
        <pt x="0" y="512" on="1"/>
        <pt x="512" y="512" on="1"/>
        <pt x="512" y="0" on="1"/>
      </contour>
      <contour>
        <pt x="1536" y="0" on="1"/>
        <pt x="1536" y="2048" on="1"/>
        <pt x="1024" y="2048" on="1"/>
        <pt x="1024" y="2560" on="1"/>
        <pt x="2048" y="2560" on="1"/>
        <pt x="2048" y="0" on="1"/>
      </contour>
      <contour>
        <pt x="1536" y="3072" on="1"/>
        <pt x="1536" y="3584" on="1"/>
        <pt x="2048" y="3584" on="1"/>
        <pt x="2048" y="3072" on="1"/>
      </contour>
    </TTGlyph>
    <TTGlyph name="k" xMin="0" yMin="0" xMax="2048" yMax="3584">
      <contour>
        <pt x="1536" y="0" on="1"/>
        <pt x="1536" y="512" on="1"/>
        <pt x="2048" y="512" on="1"/>
        <pt x="2048" y="0" on="1"/>
      </contour>
      <contour>
        <pt x="1024" y="512" on="1"/>
        <pt x="1024" y="1024" on="1"/>
        <pt x="1536" y="1024" on="1"/>
        <pt x="1536" y="512" on="1"/>
      </contour>
      <contour>
        <pt x="1024" y="1536" on="1"/>
        <pt x="1024" y="2048" on="1"/>
        <pt x="1536" y="2048" on="1"/>
        <pt x="1536" y="1536" on="1"/>
      </contour>
      <contour>
        <pt x="1536" y="2048" on="1"/>
        <pt x="1536" y="2560" on="1"/>
        <pt x="2048" y="2560" on="1"/>
        <pt x="2048" y="2048" on="1"/>
      </contour>
      <contour>
        <pt x="0" y="0" on="1"/>
        <pt x="0" y="3584" on="1"/>
        <pt x="512" y="3584" on="1"/>
        <pt x="512" y="1536" on="1"/>
        <pt x="1024" y="1536" on="1"/>
        <pt x="1024" y="1024" on="1"/>
        <pt x="512" y="1024" on="1"/>
        <pt x="512" y="0" on="1"/>
      </contour>
    </TTGlyph>
    <TTGlyph name="l" xMin="1024" yMin="0" xMax="2048" yMax="3584">
      <contour>
        <pt x="1024" y="0" on="1"/>
        <pt x="1024" y="3584" on="1"/>
        <pt x="1536" y="3584" on="1"/>
        <pt x="1536" y="512" on="1"/>
        <pt x="2048" y="512" on="1"/>
        <pt x="2048" y="0" on="1"/>
      </contour>
    </TTGlyph>
    <TTGlyph name="less" xMin="0" yMin="0" xMax="2048" yMax="3584">
      <contour>
        <pt x="1536" y="0" on="1"/>
        <pt x="1536" y="512" on="1"/>
        <pt x="2048" y="512" on="1"/>
        <pt x="2048" y="0" on="1"/>
      </contour>
      <contour>
        <pt x="1024" y="512" on="1"/>
        <pt x="1024" y="1024" on="1"/>
        <pt x="1536" y="1024" on="1"/>
        <pt x="1536" y="512" on="1"/>
      </contour>
      <contour>
        <pt x="512" y="1024" on="1"/>
        <pt x="512" y="1536" on="1"/>
        <pt x="1024" y="1536" on="1"/>
        <pt x="1024" y="1024" on="1"/>
      </contour>
      <contour>
        <pt x="0" y="1536" on="1"/>
        <pt x="0" y="2048" on="1"/>
        <pt x="512" y="2048" on="1"/>
        <pt x="512" y="1536" on="1"/>
      </contour>
      <contour>
        <pt x="512" y="2048" on="1"/>
        <pt x="512" y="2560" on="1"/>
        <pt x="1024" y="2560" on="1"/>
        <pt x="1024" y="2048" on="1"/>
      </contour>
      <contour>
        <pt x="1024" y="2560" on="1"/>
        <pt x="1024" y="3072" on="1"/>
        <pt x="1536" y="3072" on="1"/>
        <pt x="1536" y="2560" on="1"/>
      </contour>
      <contour>
        <pt x="1536" y="3072" on="1"/>
        <pt x="1536" y="3584" on="1"/>
        <pt x="2048" y="3584" on="1"/>
        <pt x="2048" y="3072" on="1"/>
      </contour>
    </TTGlyph>
    <TTGlyph name="m" xMin="0" yMin="0" xMax="2560" yMax="2560">
      <contour>
        <pt x="1024" y="1024" on="1"/>
        <pt x="1024" y="2048" on="1"/>
        <pt x="1536" y="2048" on="1"/>
        <pt x="1536" y="1024" on="1"/>
      </contour>
      <contour>
        <pt x="2048" y="0" on="1"/>
        <pt x="2048" y="2048" on="1"/>
        <pt x="2560" y="2048" on="1"/>
        <pt x="2560" y="0" on="1"/>
      </contour>
      <contour>
        <pt x="0" y="0" on="1"/>
        <pt x="0" y="2560" on="1"/>
        <pt x="1024" y="2560" on="1"/>
        <pt x="1024" y="2048" on="1"/>
        <pt x="512" y="2048" on="1"/>
        <pt x="512" y="0" on="1"/>
      </contour>
      <contour>
        <pt x="1536" y="2048" on="1"/>
        <pt x="1536" y="2560" on="1"/>
        <pt x="2048" y="2560" on="1"/>
        <pt x="2048" y="2048" on="1"/>
      </contour>
    </TTGlyph>
    <TTGlyph name="n" xMin="0" yMin="0" xMax="2048" yMax="2560">
      <contour>
        <pt x="1536" y="0" on="1"/>
        <pt x="1536" y="2048" on="1"/>
        <pt x="2048" y="2048" on="1"/>
        <pt x="2048" y="0" on="1"/>
      </contour>
      <contour>
        <pt x="0" y="0" on="1"/>
        <pt x="0" y="2560" on="1"/>
        <pt x="1536" y="2560" on="1"/>
        <pt x="1536" y="2048" on="1"/>
        <pt x="512" y="2048" on="1"/>
        <pt x="512" y="0" on="1"/>
      </contour>
    </TTGlyph>
    <TTGlyph name="nine" xMin="0" yMin="0" xMax="2560" yMax="3584">
      <contour>
        <pt x="512" y="0" on="1"/>
        <pt x="512" y="512" on="1"/>
        <pt x="1536" y="512" on="1"/>
        <pt x="1536" y="0" on="1"/>
      </contour>
      <contour>
        <pt x="1536" y="512" on="1"/>
        <pt x="1536" y="1024" on="1"/>
        <pt x="2048" y="1024" on="1"/>
        <pt x="2048" y="512" on="1"/>
      </contour>
      <contour>
        <pt x="0" y="2048" on="1"/>
        <pt x="0" y="3072" on="1"/>
        <pt x="512" y="3072" on="1"/>
        <pt x="512" y="2048" on="1"/>
      </contour>
      <contour>
        <pt x="2048" y="1024" on="1"/>
        <pt x="2048" y="1536" on="1"/>
        <pt x="512" y="1536" on="1"/>
        <pt x="512" y="2048" on="1"/>
        <pt x="2048" y="2048" on="1"/>
        <pt x="2048" y="3072" on="1"/>
        <pt x="2560" y="3072" on="1"/>
        <pt x="2560" y="1024" on="1"/>
      </contour>
      <contour>
        <pt x="512" y="3072" on="1"/>
        <pt x="512" y="3584" on="1"/>
        <pt x="2048" y="3584" on="1"/>
        <pt x="2048" y="3072" on="1"/>
      </contour>
    </TTGlyph>
    <TTGlyph name="numbersign" xMin="0" yMin="0" xMax="2560" yMax="3072">
      <contour>
        <pt x="1536" y="1024" on="1"/>
        <pt x="1536" y="2048" on="1"/>
        <pt x="1024" y="2048" on="1"/>
        <pt x="1024" y="1024" on="1"/>
      </contour>
      <contour>
        <pt x="512" y="0" on="1"/>
        <pt x="512" y="512" on="1"/>
        <pt x="0" y="512" on="1"/>
        <pt x="0" y="1024" on="1"/>
        <pt x="512" y="1024" on="1"/>
        <pt x="512" y="2048" on="1"/>
        <pt x="0" y="2048" on="1"/>
        <pt x="0" y="2560" on="1"/>
        <pt x="512" y="2560" on="1"/>
        <pt x="512" y="3072" on="1"/>
        <pt x="1024" y="3072" on="1"/>
        <pt x="1024" y="2560" on="1"/>
        <pt x="1536" y="2560" on="1"/>
        <pt x="1536" y="3072" on="1"/>
        <pt x="2048" y="3072" on="1"/>
        <pt x="2048" y="2560" on="1"/>
        <pt x="2560" y="2560" on="1"/>
        <pt x="2560" y="2048" on="1"/>
        <pt x="2048" y="2048" on="1"/>
        <pt x="2048" y="1024" on="1"/>
        <pt x="2560" y="1024" on="1"/>
        <pt x="2560" y="512" on="1"/>
        <pt x="2048" y="512" on="1"/>
        <pt x="2048" y="0" on="1"/>
        <pt x="1536" y="0" on="1"/>
        <pt x="1536" y="512" on="1"/>
        <pt x="1024" y="512" on="1"/>
        <pt x="1024" y="0" on="1"/>
      </contour>
    </TTGlyph>
    <TTGlyph name="o" xMin="0" yMin="0" xMax="2560" yMax="2560">
      <contour>
        <pt x="512" y="0" on="1"/>
        <pt x="512" y="512" on="1"/>
        <pt x="2048" y="512" on="1"/>
        <pt x="2048" y="0" on="1"/>
      </contour>
      <contour>
        <pt x="0" y="512" on="1"/>
        <pt x="0" y="2048" on="1"/>
        <pt x="512" y="2048" on="1"/>
        <pt x="512" y="512" on="1"/>
      </contour>
      <contour>
        <pt x="2048" y="512" on="1"/>
        <pt x="2048" y="2048" on="1"/>
        <pt x="2560" y="2048" on="1"/>
        <pt x="2560" y="512" on="1"/>
      </contour>
      <contour>
        <pt x="512" y="2048" on="1"/>
        <pt x="512" y="2560" on="1"/>
        <pt x="2048" y="2560" on="1"/>
        <pt x="2048" y="2048" on="1"/>
      </contour>
    </TTGlyph>
    <TTGlyph name="one" xMin="512" yMin="0" xMax="2048" yMax="3584">
      <contour>
        <pt x="512" y="0" on="1"/>
        <pt x="512" y="512" on="1"/>
        <pt x="1024" y="512" on="1"/>
        <pt x="1024" y="2560" on="1"/>
        <pt x="512" y="2560" on="1"/>
        <pt x="512" y="3072" on="1"/>
        <pt x="1024" y="3072" on="1"/>
        <pt x="1024" y="3584" on="1"/>
        <pt x="1536" y="3584" on="1"/>
        <pt x="1536" y="512" on="1"/>
        <pt x="2048" y="512" on="1"/>
        <pt x="2048" y="0" on="1"/>
      </contour>
    </TTGlyph>
    <TTGlyph name="p" xMin="0" yMin="-512" xMax="2560" yMax="2560">
      <contour>
        <pt x="2048" y="512" on="1"/>
        <pt x="2048" y="2048" on="1"/>
        <pt x="2560" y="2048" on="1"/>
        <pt x="2560" y="512" on="1"/>
      </contour>
      <contour>
        <pt x="0" y="-512" on="1"/>
        <pt x="0" y="2560" on="1"/>
        <pt x="2048" y="2560" on="1"/>
        <pt x="2048" y="2048" on="1"/>
        <pt x="512" y="2048" on="1"/>
        <pt x="512" y="512" on="1"/>
        <pt x="2048" y="512" on="1"/>
        <pt x="2048" y="0" on="1"/>
        <pt x="512" y="0" on="1"/>
        <pt x="512" y="-512" on="1"/>
      </contour>
    </TTGlyph>
    <TTGlyph name="parenleft" xMin="1024" yMin="0" xMax="2048" yMax="3584">
      <contour>
        <pt x="1536" y="0" on="1"/>
        <pt x="1536" y="512" on="1"/>
        <pt x="2048" y="512" on="1"/>
        <pt x="2048" y="0" on="1"/>
      </contour>
      <contour>
        <pt x="1024" y="512" on="1"/>
        <pt x="1024" y="3072" on="1"/>
        <pt x="1536" y="3072" on="1"/>
        <pt x="1536" y="512" on="1"/>
      </contour>
      <contour>
        <pt x="1536" y="3072" on="1"/>
        <pt x="1536" y="3584" on="1"/>
        <pt x="2048" y="3584" on="1"/>
        <pt x="2048" y="3072" on="1"/>
      </contour>
    </TTGlyph>
    <TTGlyph name="parenright" xMin="1024" yMin="0" xMax="2048" yMax="3584">
      <contour>
        <pt x="1024" y="0" on="1"/>
        <pt x="1024" y="512" on="1"/>
        <pt x="1536" y="512" on="1"/>
        <pt x="1536" y="0" on="1"/>
      </contour>
      <contour>
        <pt x="1536" y="512" on="1"/>
        <pt x="1536" y="3072" on="1"/>
        <pt x="2048" y="3072" on="1"/>
        <pt x="2048" y="512" on="1"/>
      </contour>
      <contour>
        <pt x="1024" y="3072" on="1"/>
        <pt x="1024" y="3584" on="1"/>
        <pt x="1536" y="3584" on="1"/>
        <pt x="1536" y="3072" on="1"/>
      </contour>
    </TTGlyph>
    <TTGlyph name="percent" xMin="0" yMin="0" xMax="2560" yMax="3584">
      <contour>
        <pt x="0" y="0" on="1"/>
        <pt x="0" y="1024" on="1"/>
        <pt x="512" y="1024" on="1"/>
        <pt x="512" y="0" on="1"/>
      </contour>
      <contour>
        <pt x="1536" y="0" on="1"/>
        <pt x="1536" y="1024" on="1"/>
        <pt x="2560" y="1024" on="1"/>
        <pt x="2560" y="0" on="1"/>
      </contour>
      <contour>
        <pt x="512" y="1024" on="1"/>
        <pt x="512" y="1536" on="1"/>
        <pt x="1024" y="1536" on="1"/>
        <pt x="1024" y="1024" on="1"/>
      </contour>
      <contour>
        <pt x="1024" y="1536" on="1"/>
        <pt x="1024" y="2048" on="1"/>
        <pt x="1536" y="2048" on="1"/>
        <pt x="1536" y="1536" on="1"/>
      </contour>
      <contour>
        <pt x="1536" y="2048" on="1"/>
        <pt x="1536" y="2560" on="1"/>
        <pt x="2048" y="2560" on="1"/>
        <pt x="2048" y="2048" on="1"/>
      </contour>
      <contour>
        <pt x="0" y="2560" on="1"/>
        <pt x="0" y="3584" on="1"/>
        <pt x="1024" y="3584" on="1"/>
        <pt x="1024" y="2560" on="1"/>
      </contour>
      <contour>
        <pt x="2048" y="2560" on="1"/>
        <pt x="2048" y="3584" on="1"/>
        <pt x="2560" y="3584" on="1"/>
        <pt x="2560" y="2560" on="1"/>
      </contour>
    </TTGlyph>
    <TTGlyph name="period" xMin="512" yMin="0" xMax="1536" yMax="1024">
      <contour>
        <pt x="512" y="0" on="1"/>
        <pt x="512" y="1024" on="1"/>
        <pt x="1536" y="1024" on="1"/>
        <pt x="1536" y="0" on="1"/>
      </contour>
    </TTGlyph>
    <TTGlyph name="plus" xMin="0" yMin="512" xMax="2560" yMax="3072">
      <contour>
        <pt x="1024" y="512" on="1"/>
        <pt x="1024" y="1536" on="1"/>
        <pt x="0" y="1536" on="1"/>
        <pt x="0" y="2048" on="1"/>
        <pt x="1024" y="2048" on="1"/>
        <pt x="1024" y="3072" on="1"/>
        <pt x="1536" y="3072" on="1"/>
        <pt x="1536" y="2048" on="1"/>
        <pt x="2560" y="2048" on="1"/>
        <pt x="2560" y="1536" on="1"/>
        <pt x="1536" y="1536" on="1"/>
        <pt x="1536" y="512" on="1"/>
      </contour>
    </TTGlyph>
    <TTGlyph name="q" xMin="0" yMin="-512" xMax="2560" yMax="2560">
      <contour>
        <pt x="0" y="512" on="1"/>
        <pt x="0" y="2048" on="1"/>
        <pt x="512" y="2048" on="1"/>
        <pt x="512" y="512" on="1"/>
      </contour>
      <contour>
        <pt x="2048" y="-512" on="1"/>
        <pt x="2048" y="0" on="1"/>
        <pt x="512" y="0" on="1"/>
        <pt x="512" y="512" on="1"/>
        <pt x="2048" y="512" on="1"/>
        <pt x="2048" y="2048" on="1"/>
        <pt x="512" y="2048" on="1"/>
        <pt x="512" y="2560" on="1"/>
        <pt x="2560" y="2560" on="1"/>
        <pt x="2560" y="-512" on="1"/>
      </contour>
    </TTGlyph>
    <TTGlyph name="question" xMin="0" yMin="0" xMax="2560" yMax="3584">
      <contour>
        <pt x="1024" y="0" on="1"/>
        <pt x="1024" y="512" on="1"/>
        <pt x="1536" y="512" on="1"/>
        <pt x="1536" y="0" on="1"/>
      </contour>
      <contour>
        <pt x="1024" y="1024" on="1"/>
        <pt x="1024" y="2048" on="1"/>
        <pt x="2048" y="2048" on="1"/>
        <pt x="2048" y="1536" on="1"/>
        <pt x="1536" y="1536" on="1"/>
        <pt x="1536" y="1024" on="1"/>
      </contour>
      <contour>
        <pt x="0" y="2560" on="1"/>
        <pt x="0" y="3072" on="1"/>
        <pt x="512" y="3072" on="1"/>
        <pt x="512" y="2560" on="1"/>
      </contour>
      <contour>
        <pt x="2048" y="2048" on="1"/>
        <pt x="2048" y="3072" on="1"/>
        <pt x="2560" y="3072" on="1"/>
        <pt x="2560" y="2048" on="1"/>
      </contour>
      <contour>
        <pt x="512" y="3072" on="1"/>
        <pt x="512" y="3584" on="1"/>
        <pt x="2048" y="3584" on="1"/>
        <pt x="2048" y="3072" on="1"/>
      </contour>
    </TTGlyph>
    <TTGlyph name="quotedbl" xMin="0" yMin="2048" xMax="2560" yMax="3584">
      <contour>
        <pt x="0" y="2048" on="1"/>
        <pt x="0" y="3584" on="1"/>
        <pt x="1024" y="3584" on="1"/>
        <pt x="1024" y="2560" on="1"/>
        <pt x="512" y="2560" on="1"/>
        <pt x="512" y="2048" on="1"/>
      </contour>
      <contour>
        <pt x="1536" y="2048" on="1"/>
        <pt x="1536" y="3584" on="1"/>
        <pt x="2560" y="3584" on="1"/>
        <pt x="2560" y="2560" on="1"/>
        <pt x="2048" y="2560" on="1"/>
        <pt x="2048" y="2048" on="1"/>
      </contour>
    </TTGlyph>
    <TTGlyph name="quotesingle" xMin="0" yMin="2048" xMax="1024" yMax="3584">
      <contour>
        <pt x="0" y="2048" on="1"/>
        <pt x="0" y="3584" on="1"/>
        <pt x="1024" y="3584" on="1"/>
        <pt x="1024" y="2560" on="1"/>
        <pt x="512" y="2560" on="1"/>
        <pt x="512" y="2048" on="1"/>
      </contour>
    </TTGlyph>
    <TTGlyph name="r" xMin="0" yMin="0" xMax="2560" yMax="2560">
      <contour>
        <pt x="0" y="0" on="1"/>
        <pt x="0" y="512" on="1"/>
        <pt x="512" y="512" on="1"/>
        <pt x="512" y="2048" on="1"/>
        <pt x="1024" y="2048" on="1"/>
        <pt x="1024" y="512" on="1"/>
        <pt x="1536" y="512" on="1"/>
        <pt x="1536" y="0" on="1"/>
      </contour>
      <contour>
        <pt x="2048" y="1536" on="1"/>
        <pt x="2048" y="2048" on="1"/>
        <pt x="2560" y="2048" on="1"/>
        <pt x="2560" y="1536" on="1"/>
      </contour>
      <contour>
        <pt x="0" y="2048" on="1"/>
        <pt x="0" y="2560" on="1"/>
        <pt x="512" y="2560" on="1"/>
        <pt x="512" y="2048" on="1"/>
      </contour>
      <contour>
        <pt x="1024" y="2048" on="1"/>
        <pt x="1024" y="2560" on="1"/>
        <pt x="2048" y="2560" on="1"/>
        <pt x="2048" y="2048" on="1"/>
      </contour>
    </TTGlyph>
    <TTGlyph name="s" xMin="0" yMin="0" xMax="2560" yMax="2560">
      <contour>
        <pt x="512" y="0" on="1"/>
        <pt x="512" y="512" on="1"/>
        <pt x="2048" y="512" on="1"/>
        <pt x="2048" y="0" on="1"/>
      </contour>
      <contour>
        <pt x="2048" y="512" on="1"/>
        <pt x="2048" y="1024" on="1"/>
        <pt x="2560" y="1024" on="1"/>
        <pt x="2560" y="512" on="1"/>
      </contour>
      <contour>
        <pt x="512" y="1024" on="1"/>
        <pt x="512" y="1536" on="1"/>
        <pt x="2048" y="1536" on="1"/>
        <pt x="2048" y="1024" on="1"/>
      </contour>
      <contour>
        <pt x="0" y="1536" on="1"/>
        <pt x="0" y="2048" on="1"/>
        <pt x="512" y="2048" on="1"/>
        <pt x="512" y="1536" on="1"/>
      </contour>
      <contour>
        <pt x="512" y="2048" on="1"/>
        <pt x="512" y="2560" on="1"/>
        <pt x="2048" y="2560" on="1"/>
        <pt x="2048" y="2048" on="1"/>
      </contour>
    </TTGlyph>
    <TTGlyph name="semicolon" xMin="512" yMin="-512" xMax="1536" yMax="2560">
      <contour>
        <pt x="512" y="-512" on="1"/>
        <pt x="512" y="1024" on="1"/>
        <pt x="1536" y="1024" on="1"/>
        <pt x="1536" y="0" on="1"/>
        <pt x="1024" y="0" on="1"/>
        <pt x="1024" y="-512" on="1"/>
      </contour>
      <contour>
        <pt x="512" y="1536" on="1"/>
        <pt x="512" y="2560" on="1"/>
        <pt x="1536" y="2560" on="1"/>
        <pt x="1536" y="1536" on="1"/>
      </contour>
    </TTGlyph>
    <TTGlyph name="seven" xMin="0" yMin="0" xMax="2560" yMax="3584">
      <contour>
        <pt x="512" y="0" on="1"/>
        <pt x="512" y="1536" on="1"/>
        <pt x="1024" y="1536" on="1"/>
        <pt x="1024" y="0" on="1"/>
      </contour>
      <contour>
        <pt x="1024" y="1536" on="1"/>
        <pt x="1024" y="2048" on="1"/>
        <pt x="1536" y="2048" on="1"/>
        <pt x="1536" y="1536" on="1"/>
      </contour>
      <contour>
        <pt x="1536" y="2048" on="1"/>
        <pt x="1536" y="2560" on="1"/>
        <pt x="2048" y="2560" on="1"/>
        <pt x="2048" y="2048" on="1"/>
      </contour>
      <contour>
        <pt x="2048" y="2560" on="1"/>
        <pt x="2048" y="3072" on="1"/>
        <pt x="0" y="3072" on="1"/>
        <pt x="0" y="3584" on="1"/>
        <pt x="2560" y="3584" on="1"/>
        <pt x="2560" y="2560" on="1"/>
      </contour>
    </TTGlyph>
    <TTGlyph name="six" xMin="0" yMin="0" xMax="2560" yMax="3584">
      <contour>
        <pt x="512" y="0" on="1"/>
        <pt x="512" y="512" on="1"/>
        <pt x="2048" y="512" on="1"/>
        <pt x="2048" y="0" on="1"/>
      </contour>
      <contour>
        <pt x="2048" y="512" on="1"/>
        <pt x="2048" y="1536" on="1"/>
        <pt x="2560" y="1536" on="1"/>
        <pt x="2560" y="512" on="1"/>
      </contour>
      <contour>
        <pt x="0" y="512" on="1"/>
        <pt x="0" y="2560" on="1"/>
        <pt x="512" y="2560" on="1"/>
        <pt x="512" y="2048" on="1"/>
        <pt x="2048" y="2048" on="1"/>
        <pt x="2048" y="1536" on="1"/>
        <pt x="512" y="1536" on="1"/>
        <pt x="512" y="512" on="1"/>
      </contour>
      <contour>
        <pt x="512" y="2560" on="1"/>
        <pt x="512" y="3072" on="1"/>
        <pt x="1024" y="3072" on="1"/>
        <pt x="1024" y="2560" on="1"/>
      </contour>
      <contour>
        <pt x="1024" y="3072" on="1"/>
        <pt x="1024" y="3584" on="1"/>
        <pt x="2048" y="3584" on="1"/>
        <pt x="2048" y="3072" on="1"/>
      </contour>
    </TTGlyph>
    <TTGlyph name="slash" xMin="0" yMin="512" xMax="2560" yMax="3072">
      <contour>
        <pt x="0" y="512" on="1"/>
        <pt x="0" y="1024" on="1"/>
        <pt x="512" y="1024" on="1"/>
        <pt x="512" y="512" on="1"/>
      </contour>
      <contour>
        <pt x="512" y="1024" on="1"/>
        <pt x="512" y="1536" on="1"/>
        <pt x="1024" y="1536" on="1"/>
        <pt x="1024" y="1024" on="1"/>
      </contour>
      <contour>
        <pt x="1024" y="1536" on="1"/>
        <pt x="1024" y="2048" on="1"/>
        <pt x="1536" y="2048" on="1"/>
        <pt x="1536" y="1536" on="1"/>
      </contour>
      <contour>
        <pt x="1536" y="2048" on="1"/>
        <pt x="1536" y="2560" on="1"/>
        <pt x="2048" y="2560" on="1"/>
        <pt x="2048" y="2048" on="1"/>
      </contour>
      <contour>
        <pt x="2048" y="2560" on="1"/>
        <pt x="2048" y="3072" on="1"/>
        <pt x="2560" y="3072" on="1"/>
        <pt x="2560" y="2560" on="1"/>
      </contour>
    </TTGlyph>
    <TTGlyph name="t" xMin="0" yMin="0" xMax="2048" yMax="3072">
      <contour>
        <pt x="1024" y="0" on="1"/>
        <pt x="1024" y="512" on="1"/>
        <pt x="1536" y="512" on="1"/>
        <pt x="1536" y="0" on="1"/>
      </contour>
      <contour>
        <pt x="1536" y="512" on="1"/>
        <pt x="1536" y="1024" on="1"/>
        <pt x="2048" y="1024" on="1"/>
        <pt x="2048" y="512" on="1"/>
      </contour>
      <contour>
        <pt x="512" y="512" on="1"/>
        <pt x="512" y="2048" on="1"/>
        <pt x="0" y="2048" on="1"/>
        <pt x="0" y="2560" on="1"/>
        <pt x="512" y="2560" on="1"/>
        <pt x="512" y="3072" on="1"/>
        <pt x="1024" y="3072" on="1"/>
        <pt x="1024" y="2560" on="1"/>
        <pt x="2048" y="2560" on="1"/>
        <pt x="2048" y="2048" on="1"/>
        <pt x="1024" y="2048" on="1"/>
        <pt x="1024" y="512" on="1"/>
      </contour>
    </TTGlyph>
    <TTGlyph name="three" xMin="0" yMin="0" xMax="2560" yMax="3584">
      <contour>
        <pt x="512" y="0" on="1"/>
        <pt x="512" y="512" on="1"/>
        <pt x="2048" y="512" on="1"/>
        <pt x="2048" y="0" on="1"/>
      </contour>
      <contour>
        <pt x="0" y="512" on="1"/>
        <pt x="0" y="1024" on="1"/>
        <pt x="512" y="1024" on="1"/>
        <pt x="512" y="512" on="1"/>
      </contour>
      <contour>
        <pt x="2048" y="512" on="1"/>
        <pt x="2048" y="1536" on="1"/>
        <pt x="2560" y="1536" on="1"/>
        <pt x="2560" y="512" on="1"/>
      </contour>
      <contour>
        <pt x="512" y="1536" on="1"/>
        <pt x="512" y="2048" on="1"/>
        <pt x="2048" y="2048" on="1"/>
        <pt x="2048" y="1536" on="1"/>
      </contour>
      <contour>
        <pt x="0" y="2560" on="1"/>
        <pt x="0" y="3072" on="1"/>
        <pt x="512" y="3072" on="1"/>
        <pt x="512" y="2560" on="1"/>
      </contour>
      <contour>
        <pt x="2048" y="2048" on="1"/>
        <pt x="2048" y="3072" on="1"/>
        <pt x="2560" y="3072" on="1"/>
        <pt x="2560" y="2048" on="1"/>
      </contour>
      <contour>
        <pt x="512" y="3072" on="1"/>
        <pt x="512" y="3584" on="1"/>
        <pt x="2048" y="3584" on="1"/>
        <pt x="2048" y="3072" on="1"/>
      </contour>
    </TTGlyph>
    <TTGlyph name="two" xMin="0" yMin="0" xMax="2560" yMax="3584">
      <contour>
        <pt x="0" y="0" on="1"/>
        <pt x="0" y="1024" on="1"/>
        <pt x="512" y="1024" on="1"/>
        <pt x="512" y="512" on="1"/>
        <pt x="2560" y="512" on="1"/>
        <pt x="2560" y="0" on="1"/>
      </contour>
      <contour>
        <pt x="512" y="1024" on="1"/>
        <pt x="512" y="1536" on="1"/>
        <pt x="1024" y="1536" on="1"/>
        <pt x="1024" y="1024" on="1"/>
      </contour>
      <contour>
        <pt x="1024" y="1536" on="1"/>
        <pt x="1024" y="2048" on="1"/>
        <pt x="2048" y="2048" on="1"/>
        <pt x="2048" y="1536" on="1"/>
      </contour>
      <contour>
        <pt x="0" y="2560" on="1"/>
        <pt x="0" y="3072" on="1"/>
        <pt x="512" y="3072" on="1"/>
        <pt x="512" y="2560" on="1"/>
      </contour>
      <contour>
        <pt x="2048" y="2048" on="1"/>
        <pt x="2048" y="3072" on="1"/>
        <pt x="2560" y="3072" on="1"/>
        <pt x="2560" y="2048" on="1"/>
      </contour>
      <contour>
        <pt x="512" y="3072" on="1"/>
        <pt x="512" y="3584" on="1"/>
        <pt x="2048" y="3584" on="1"/>
        <pt x="2048" y="3072" on="1"/>
      </contour>
    </TTGlyph>
    <TTGlyph name="u" xMin="0" yMin="0" xMax="2048" yMax="2560">
      <contour>
        <pt x="512" y="0" on="1"/>
        <pt x="512" y="512" on="1"/>
        <pt x="1024" y="512" on="1"/>
        <pt x="1024" y="0" on="1"/>
      </contour>
      <contour>
        <pt x="0" y="512" on="1"/>
        <pt x="0" y="2560" on="1"/>
        <pt x="512" y="2560" on="1"/>
        <pt x="512" y="512" on="1"/>
      </contour>
      <contour>
        <pt x="1536" y="0" on="1"/>
        <pt x="1536" y="512" on="1"/>
        <pt x="1024" y="512" on="1"/>
        <pt x="1024" y="1024" on="1"/>
        <pt x="1536" y="1024" on="1"/>
        <pt x="1536" y="2560" on="1"/>
        <pt x="2048" y="2560" on="1"/>
        <pt x="2048" y="0" on="1"/>
      </contour>
    </TTGlyph>
    <TTGlyph name="underscore" xMin="0" yMin="-512" xMax="2560" yMax="0">
      <contour>
        <pt x="0" y="-512" on="1"/>
        <pt x="0" y="0" on="1"/>
        <pt x="2560" y="0" on="1"/>
        <pt x="2560" y="-512" on="1"/>
      </contour>
    </TTGlyph>
    <TTGlyph name="uni060C" xMin="512" yMin="512" xMax="1536" yMax="2048">
      <contour>
        <pt x="512" y="512" on="1"/>
        <pt x="512" y="2048" on="1"/>
        <pt x="1024" y="2048" on="1"/>
        <pt x="1024" y="1536" on="1"/>
        <pt x="1536" y="1536" on="1"/>
        <pt x="1536" y="512" on="1"/>
      </contour>
    </TTGlyph>
    <TTGlyph name="uni061B" xMin="512" yMin="512" xMax="1536" yMax="3584">
      <contour>
        <pt x="512" y="512" on="1"/>
        <pt x="512" y="1536" on="1"/>
        <pt x="1536" y="1536" on="1"/>
        <pt x="1536" y="512" on="1"/>
      </contour>
      <contour>
        <pt x="512" y="2048" on="1"/>
        <pt x="512" y="3584" on="1"/>
        <pt x="1024" y="3584" on="1"/>
        <pt x="1024" y="3072" on="1"/>
        <pt x="1536" y="3072" on="1"/>
        <pt x="1536" y="2048" on="1"/>
      </contour>
    </TTGlyph>
    <TTGlyph name="uni061E" xMin="0" yMin="512" xMax="3072" yMax="3072">
      <contour>
        <pt x="0" y="512" on="1"/>
        <pt x="0" y="1536" on="1"/>
        <pt x="1024" y="1536" on="1"/>
        <pt x="1024" y="512" on="1"/>
      </contour>
      <contour>
        <pt x="2048" y="512" on="1"/>
        <pt x="2048" y="1536" on="1"/>
        <pt x="3072" y="1536" on="1"/>
        <pt x="3072" y="512" on="1"/>
      </contour>
      <contour>
        <pt x="1024" y="2048" on="1"/>
        <pt x="1024" y="3072" on="1"/>
        <pt x="2048" y="3072" on="1"/>
        <pt x="2048" y="2048" on="1"/>
      </contour>
    </TTGlyph>
    <TTGlyph name="uni061F" xMin="0" yMin="0" xMax="2560" yMax="3584">
      <contour>
        <pt x="1024" y="0" on="1"/>
        <pt x="1024" y="512" on="1"/>
        <pt x="1536" y="512" on="1"/>
        <pt x="1536" y="0" on="1"/>
      </contour>
      <contour>
        <pt x="1024" y="1024" on="1"/>
        <pt x="1024" y="1536" on="1"/>
        <pt x="512" y="1536" on="1"/>
        <pt x="512" y="2048" on="1"/>
        <pt x="1536" y="2048" on="1"/>
        <pt x="1536" y="1024" on="1"/>
      </contour>
      <contour>
        <pt x="0" y="2048" on="1"/>
        <pt x="0" y="3072" on="1"/>
        <pt x="512" y="3072" on="1"/>
        <pt x="512" y="2048" on="1"/>
      </contour>
      <contour>
        <pt x="2048" y="2560" on="1"/>
        <pt x="2048" y="3072" on="1"/>
        <pt x="2560" y="3072" on="1"/>
        <pt x="2560" y="2560" on="1"/>
      </contour>
      <contour>
        <pt x="512" y="3072" on="1"/>
        <pt x="512" y="3584" on="1"/>
        <pt x="2048" y="3584" on="1"/>
        <pt x="2048" y="3072" on="1"/>
      </contour>
    </TTGlyph>
    <TTGlyph name="uni0621" xMin="0" yMin="512" xMax="1536" yMax="1536">
      <contour>
        <pt x="0" y="512" on="1"/>
        <pt x="0" y="1024" on="1"/>
        <pt x="512" y="1024" on="1"/>
        <pt x="512" y="1536" on="1"/>
        <pt x="1536" y="1536" on="1"/>
        <pt x="1536" y="1024" on="1"/>
        <pt x="1024" y="1024" on="1"/>
        <pt x="1024" y="512" on="1"/>
      </contour>
    </TTGlyph>
    <TTGlyph name="uni0622" xMin="0" yMin="512" xMax="1536" yMax="4096">
      <contour>
        <pt x="512" y="512" on="1"/>
        <pt x="512" y="2560" on="1"/>
        <pt x="1024" y="2560" on="1"/>
        <pt x="1024" y="512" on="1"/>
      </contour>
      <contour>
        <pt x="0" y="3072" on="1"/>
        <pt x="0" y="3584" on="1"/>
        <pt x="1024" y="3584" on="1"/>
        <pt x="1024" y="3072" on="1"/>
      </contour>
      <contour>
        <pt x="1024" y="3584" on="1"/>
        <pt x="1024" y="4096" on="1"/>
        <pt x="1536" y="4096" on="1"/>
        <pt x="1536" y="3584" on="1"/>
      </contour>
    </TTGlyph>
    <TTGlyph name="uni0627" xMin="0" yMin="512" xMax="512" yMax="2560">
      <contour>
        <pt x="0" y="512" on="1"/>
        <pt x="0" y="2560" on="1"/>
        <pt x="512" y="2560" on="1"/>
        <pt x="512" y="512" on="1"/>
      </contour>
    </TTGlyph>
    <TTGlyph name="uni0628" xMin="0" yMin="0" xMax="2560" yMax="2048">
      <contour>
        <pt x="0" y="1024" on="1"/>
        <pt x="0" y="2048" on="1"/>
        <pt x="512" y="2048" on="1"/>
        <pt x="512" y="1024" on="1"/>
      </contour>
      <contour>
        <pt x="1024" y="0" on="1"/>
        <pt x="1024" y="512" on="1"/>
        <pt x="512" y="512" on="1"/>
        <pt x="512" y="1024" on="1"/>
        <pt x="2048" y="1024" on="1"/>
        <pt x="2048" y="2048" on="1"/>
        <pt x="2560" y="2048" on="1"/>
        <pt x="2560" y="512" on="1"/>
        <pt x="1536" y="512" on="1"/>
        <pt x="1536" y="0" on="1"/>
      </contour>
    </TTGlyph>
    <TTGlyph name="uni0629" xMin="0" yMin="512" xMax="2048" yMax="3584">
      <contour>
        <pt x="0" y="1024" on="1"/>
        <pt x="0" y="2048" on="1"/>
        <pt x="512" y="2048" on="1"/>
        <pt x="512" y="1024" on="1"/>
      </contour>
      <contour>
        <pt x="512" y="512" on="1"/>
        <pt x="512" y="1024" on="1"/>
        <pt x="1536" y="1024" on="1"/>
        <pt x="1536" y="2048" on="1"/>
        <pt x="512" y="2048" on="1"/>
        <pt x="512" y="2560" on="1"/>
        <pt x="2048" y="2560" on="1"/>
        <pt x="2048" y="512" on="1"/>
      </contour>
      <contour>
        <pt x="512" y="3072" on="1"/>
        <pt x="512" y="3584" on="1"/>
        <pt x="2048" y="3584" on="1"/>
        <pt x="2048" y="3072" on="1"/>
      </contour>
    </TTGlyph>
    <TTGlyph name="uni062A" xMin="0" yMin="512" xMax="2560" yMax="3072">
      <contour>
        <pt x="0" y="1024" on="1"/>
        <pt x="0" y="2048" on="1"/>
        <pt x="512" y="2048" on="1"/>
        <pt x="512" y="1024" on="1"/>
      </contour>
      <contour>
        <pt x="512" y="512" on="1"/>
        <pt x="512" y="1024" on="1"/>
        <pt x="2048" y="1024" on="1"/>
        <pt x="2048" y="2048" on="1"/>
        <pt x="2560" y="2048" on="1"/>
        <pt x="2560" y="512" on="1"/>
      </contour>
      <contour>
        <pt x="512" y="2560" on="1"/>
        <pt x="512" y="3072" on="1"/>
        <pt x="2048" y="3072" on="1"/>
        <pt x="2048" y="2560" on="1"/>
      </contour>
    </TTGlyph>
    <TTGlyph name="uni062B" xMin="0" yMin="512" xMax="2560" yMax="3584">
      <contour>
        <pt x="0" y="1024" on="1"/>
        <pt x="0" y="2048" on="1"/>
        <pt x="512" y="2048" on="1"/>
        <pt x="512" y="1024" on="1"/>
      </contour>
      <contour>
        <pt x="512" y="512" on="1"/>
        <pt x="512" y="1024" on="1"/>
        <pt x="2048" y="1024" on="1"/>
        <pt x="2048" y="2048" on="1"/>
        <pt x="2560" y="2048" on="1"/>
        <pt x="2560" y="512" on="1"/>
      </contour>
      <contour>
        <pt x="512" y="2560" on="1"/>
        <pt x="512" y="3072" on="1"/>
        <pt x="1024" y="3072" on="1"/>
        <pt x="1024" y="3584" on="1"/>
        <pt x="1536" y="3584" on="1"/>
        <pt x="1536" y="3072" on="1"/>
        <pt x="2048" y="3072" on="1"/>
        <pt x="2048" y="2560" on="1"/>
      </contour>
    </TTGlyph>
    <TTGlyph name="uni062C" xMin="0" yMin="0" xMax="2048" yMax="3072">
      <contour>
        <pt x="512" y="0" on="1"/>
        <pt x="512" y="512" on="1"/>
        <pt x="2048" y="512" on="1"/>
        <pt x="2048" y="0" on="1"/>
      </contour>
      <contour>
        <pt x="0" y="512" on="1"/>
        <pt x="0" y="2048" on="1"/>
        <pt x="1536" y="2048" on="1"/>
        <pt x="1536" y="2560" on="1"/>
        <pt x="0" y="2560" on="1"/>
        <pt x="0" y="3072" on="1"/>
        <pt x="2048" y="3072" on="1"/>
        <pt x="2048" y="1536" on="1"/>
        <pt x="1536" y="1536" on="1"/>
        <pt x="1536" y="1024" on="1"/>
        <pt x="1024" y="1024" on="1"/>
        <pt x="1024" y="1536" on="1"/>
        <pt x="512" y="1536" on="1"/>
        <pt x="512" y="512" on="1"/>
      </contour>
    </TTGlyph>
    <TTGlyph name="uni062D" xMin="0" yMin="0" xMax="2048" yMax="3072">
      <contour>
        <pt x="512" y="0" on="1"/>
        <pt x="512" y="512" on="1"/>
        <pt x="2048" y="512" on="1"/>
        <pt x="2048" y="0" on="1"/>
      </contour>
      <contour>
        <pt x="0" y="512" on="1"/>
        <pt x="0" y="2048" on="1"/>
        <pt x="1536" y="2048" on="1"/>
        <pt x="1536" y="2560" on="1"/>
        <pt x="0" y="2560" on="1"/>
        <pt x="0" y="3072" on="1"/>
        <pt x="2048" y="3072" on="1"/>
        <pt x="2048" y="1536" on="1"/>
        <pt x="512" y="1536" on="1"/>
        <pt x="512" y="512" on="1"/>
      </contour>
    </TTGlyph>
    <TTGlyph name="uni062E" xMin="0" yMin="0" xMax="2048" yMax="3584">
      <contour>
        <pt x="512" y="0" on="1"/>
        <pt x="512" y="512" on="1"/>
        <pt x="2048" y="512" on="1"/>
        <pt x="2048" y="0" on="1"/>
      </contour>
      <contour>
        <pt x="0" y="512" on="1"/>
        <pt x="0" y="2048" on="1"/>
        <pt x="1536" y="2048" on="1"/>
        <pt x="1536" y="2560" on="1"/>
        <pt x="0" y="2560" on="1"/>
        <pt x="0" y="3072" on="1"/>
        <pt x="1024" y="3072" on="1"/>
        <pt x="1024" y="3584" on="1"/>
        <pt x="1536" y="3584" on="1"/>
        <pt x="1536" y="3072" on="1"/>
        <pt x="2048" y="3072" on="1"/>
        <pt x="2048" y="1536" on="1"/>
        <pt x="512" y="1536" on="1"/>
        <pt x="512" y="512" on="1"/>
      </contour>
    </TTGlyph>
    <TTGlyph name="uni062F" xMin="0" yMin="512" xMax="2048" yMax="2560">
      <contour>
        <pt x="0" y="512" on="1"/>
        <pt x="0" y="1024" on="1"/>
        <pt x="1536" y="1024" on="1"/>
        <pt x="1536" y="2048" on="1"/>
        <pt x="2048" y="2048" on="1"/>
        <pt x="2048" y="512" on="1"/>
      </contour>
      <contour>
        <pt x="512" y="2048" on="1"/>
        <pt x="512" y="2560" on="1"/>
        <pt x="1536" y="2560" on="1"/>
        <pt x="1536" y="2048" on="1"/>
      </contour>
    </TTGlyph>
    <TTGlyph name="uni0630" xMin="0" yMin="512" xMax="2048" yMax="3584">
      <contour>
        <pt x="0" y="512" on="1"/>
        <pt x="0" y="1024" on="1"/>
        <pt x="1536" y="1024" on="1"/>
        <pt x="1536" y="2048" on="1"/>
        <pt x="2048" y="2048" on="1"/>
        <pt x="2048" y="512" on="1"/>
      </contour>
      <contour>
        <pt x="512" y="2048" on="1"/>
        <pt x="512" y="2560" on="1"/>
        <pt x="1536" y="2560" on="1"/>
        <pt x="1536" y="2048" on="1"/>
      </contour>
      <contour>
        <pt x="512" y="3072" on="1"/>
        <pt x="512" y="3584" on="1"/>
        <pt x="1024" y="3584" on="1"/>
        <pt x="1024" y="3072" on="1"/>
      </contour>
    </TTGlyph>
    <TTGlyph name="uni0631" xMin="0" yMin="-512" xMax="2048" yMax="2048">
      <contour>
        <pt x="0" y="-512" on="1"/>
        <pt x="0" y="0" on="1"/>
        <pt x="1024" y="0" on="1"/>
        <pt x="1024" y="-512" on="1"/>
      </contour>
      <contour>
        <pt x="1024" y="0" on="1"/>
        <pt x="1024" y="512" on="1"/>
        <pt x="1536" y="512" on="1"/>
        <pt x="1536" y="0" on="1"/>
      </contour>
      <contour>
        <pt x="1536" y="512" on="1"/>
        <pt x="1536" y="2048" on="1"/>
        <pt x="2048" y="2048" on="1"/>
        <pt x="2048" y="512" on="1"/>
      </contour>
    </TTGlyph>
    <TTGlyph name="uni0632" xMin="0" yMin="-512" xMax="2048" yMax="3072">
      <contour>
        <pt x="0" y="-512" on="1"/>
        <pt x="0" y="0" on="1"/>
        <pt x="1024" y="0" on="1"/>
        <pt x="1024" y="-512" on="1"/>
      </contour>
      <contour>
        <pt x="1024" y="0" on="1"/>
        <pt x="1024" y="512" on="1"/>
        <pt x="1536" y="512" on="1"/>
        <pt x="1536" y="0" on="1"/>
      </contour>
      <contour>
        <pt x="1536" y="512" on="1"/>
        <pt x="1536" y="2048" on="1"/>
        <pt x="2048" y="2048" on="1"/>
        <pt x="2048" y="512" on="1"/>
      </contour>
      <contour>
        <pt x="1536" y="2560" on="1"/>
        <pt x="1536" y="3072" on="1"/>
        <pt x="2048" y="3072" on="1"/>
        <pt x="2048" y="2560" on="1"/>
      </contour>
    </TTGlyph>
    <TTGlyph name="uni0633" xMin="0" yMin="0" xMax="4096" yMax="2048">
      <contour>
        <pt x="512" y="0" on="1"/>
        <pt x="512" y="512" on="1"/>
        <pt x="1536" y="512" on="1"/>
        <pt x="1536" y="0" on="1"/>
      </contour>
      <contour>
        <pt x="0" y="512" on="1"/>
        <pt x="0" y="2048" on="1"/>
        <pt x="512" y="2048" on="1"/>
        <pt x="512" y="512" on="1"/>
      </contour>
      <contour>
        <pt x="1536" y="512" on="1"/>
        <pt x="1536" y="2048" on="1"/>
        <pt x="2048" y="2048" on="1"/>
        <pt x="2048" y="1024" on="1"/>
        <pt x="2560" y="1024" on="1"/>
        <pt x="2560" y="2048" on="1"/>
        <pt x="3072" y="2048" on="1"/>
        <pt x="3072" y="1024" on="1"/>
        <pt x="3584" y="1024" on="1"/>
        <pt x="3584" y="512" on="1"/>
      </contour>
      <contour>
        <pt x="3584" y="1024" on="1"/>
        <pt x="3584" y="2048" on="1"/>
        <pt x="4096" y="2048" on="1"/>
        <pt x="4096" y="1024" on="1"/>
      </contour>
    </TTGlyph>
    <TTGlyph name="uni0634" xMin="0" yMin="0" xMax="4096" yMax="3584">
      <contour>
        <pt x="512" y="0" on="1"/>
        <pt x="512" y="512" on="1"/>
        <pt x="1536" y="512" on="1"/>
        <pt x="1536" y="0" on="1"/>
      </contour>
      <contour>
        <pt x="0" y="512" on="1"/>
        <pt x="0" y="2048" on="1"/>
        <pt x="512" y="2048" on="1"/>
        <pt x="512" y="512" on="1"/>
      </contour>
      <contour>
        <pt x="1536" y="512" on="1"/>
        <pt x="1536" y="2048" on="1"/>
        <pt x="2048" y="2048" on="1"/>
        <pt x="2048" y="1024" on="1"/>
        <pt x="2560" y="1024" on="1"/>
        <pt x="2560" y="2048" on="1"/>
        <pt x="3072" y="2048" on="1"/>
        <pt x="3072" y="1024" on="1"/>
        <pt x="3584" y="1024" on="1"/>
        <pt x="3584" y="512" on="1"/>
      </contour>
      <contour>
        <pt x="3584" y="1024" on="1"/>
        <pt x="3584" y="2048" on="1"/>
        <pt x="4096" y="2048" on="1"/>
        <pt x="4096" y="1024" on="1"/>
      </contour>
      <contour>
        <pt x="2048" y="2560" on="1"/>
        <pt x="2048" y="3072" on="1"/>
        <pt x="2560" y="3072" on="1"/>
        <pt x="2560" y="3584" on="1"/>
        <pt x="3072" y="3584" on="1"/>
        <pt x="3072" y="3072" on="1"/>
        <pt x="3584" y="3072" on="1"/>
        <pt x="3584" y="2560" on="1"/>
      </contour>
    </TTGlyph>
    <TTGlyph name="uni0635" xMin="0" yMin="0" xMax="4096" yMax="2560">
      <contour>
        <pt x="512" y="0" on="1"/>
        <pt x="512" y="512" on="1"/>
        <pt x="1536" y="512" on="1"/>
        <pt x="1536" y="0" on="1"/>
      </contour>
      <contour>
        <pt x="0" y="512" on="1"/>
        <pt x="0" y="2048" on="1"/>
        <pt x="512" y="2048" on="1"/>
        <pt x="512" y="512" on="1"/>
      </contour>
      <contour>
        <pt x="1536" y="512" on="1"/>
        <pt x="1536" y="2048" on="1"/>
        <pt x="2560" y="2048" on="1"/>
        <pt x="2560" y="1536" on="1"/>
        <pt x="2048" y="1536" on="1"/>
        <pt x="2048" y="1024" on="1"/>
        <pt x="3584" y="1024" on="1"/>
        <pt x="3584" y="512" on="1"/>
      </contour>
      <contour>
        <pt x="3584" y="1024" on="1"/>
        <pt x="3584" y="2048" on="1"/>
        <pt x="4096" y="2048" on="1"/>
        <pt x="4096" y="1024" on="1"/>
      </contour>
      <contour>
        <pt x="2560" y="2048" on="1"/>
        <pt x="2560" y="2560" on="1"/>
        <pt x="3584" y="2560" on="1"/>
        <pt x="3584" y="2048" on="1"/>
      </contour>
    </TTGlyph>
    <TTGlyph name="uni0636" xMin="0" yMin="0" xMax="4096" yMax="3584">
      <contour>
        <pt x="512" y="0" on="1"/>
        <pt x="512" y="512" on="1"/>
        <pt x="1536" y="512" on="1"/>
        <pt x="1536" y="0" on="1"/>
      </contour>
      <contour>
        <pt x="0" y="512" on="1"/>
        <pt x="0" y="2048" on="1"/>
        <pt x="512" y="2048" on="1"/>
        <pt x="512" y="512" on="1"/>
      </contour>
      <contour>
        <pt x="1536" y="512" on="1"/>
        <pt x="1536" y="2048" on="1"/>
        <pt x="2560" y="2048" on="1"/>
        <pt x="2560" y="1536" on="1"/>
        <pt x="2048" y="1536" on="1"/>
        <pt x="2048" y="1024" on="1"/>
        <pt x="3584" y="1024" on="1"/>
        <pt x="3584" y="512" on="1"/>
      </contour>
      <contour>
        <pt x="3584" y="1024" on="1"/>
        <pt x="3584" y="2048" on="1"/>
        <pt x="4096" y="2048" on="1"/>
        <pt x="4096" y="1024" on="1"/>
      </contour>
      <contour>
        <pt x="2560" y="2048" on="1"/>
        <pt x="2560" y="2560" on="1"/>
        <pt x="3584" y="2560" on="1"/>
        <pt x="3584" y="2048" on="1"/>
      </contour>
      <contour>
        <pt x="2560" y="3072" on="1"/>
        <pt x="2560" y="3584" on="1"/>
        <pt x="3072" y="3584" on="1"/>
        <pt x="3072" y="3072" on="1"/>
      </contour>
    </TTGlyph>
    <TTGlyph name="uni0637" xMin="0" yMin="512" xMax="3072" yMax="3584">
      <contour>
        <pt x="2560" y="1024" on="1"/>
        <pt x="2560" y="2048" on="1"/>
        <pt x="3072" y="2048" on="1"/>
        <pt x="3072" y="1024" on="1"/>
      </contour>
      <contour>
        <pt x="1536" y="2048" on="1"/>
        <pt x="1536" y="2560" on="1"/>
        <pt x="2560" y="2560" on="1"/>
        <pt x="2560" y="2048" on="1"/>
      </contour>
      <contour>
        <pt x="0" y="512" on="1"/>
        <pt x="0" y="1024" on="1"/>
        <pt x="512" y="1024" on="1"/>
        <pt x="512" y="3584" on="1"/>
        <pt x="1024" y="3584" on="1"/>
        <pt x="1024" y="2048" on="1"/>
        <pt x="1536" y="2048" on="1"/>
        <pt x="1536" y="1536" on="1"/>
        <pt x="1024" y="1536" on="1"/>
        <pt x="1024" y="1024" on="1"/>
        <pt x="2560" y="1024" on="1"/>
        <pt x="2560" y="512" on="1"/>
      </contour>
    </TTGlyph>
    <TTGlyph name="uni0638" xMin="0" yMin="512" xMax="3072" yMax="3584">
      <contour>
        <pt x="2560" y="1024" on="1"/>
        <pt x="2560" y="2048" on="1"/>
        <pt x="3072" y="2048" on="1"/>
        <pt x="3072" y="1024" on="1"/>
      </contour>
      <contour>
        <pt x="1536" y="2048" on="1"/>
        <pt x="1536" y="2560" on="1"/>
        <pt x="2560" y="2560" on="1"/>
        <pt x="2560" y="2048" on="1"/>
      </contour>
      <contour>
        <pt x="0" y="512" on="1"/>
        <pt x="0" y="1024" on="1"/>
        <pt x="512" y="1024" on="1"/>
        <pt x="512" y="3584" on="1"/>
        <pt x="1024" y="3584" on="1"/>
        <pt x="1024" y="2048" on="1"/>
        <pt x="1536" y="2048" on="1"/>
        <pt x="1536" y="1536" on="1"/>
        <pt x="1024" y="1536" on="1"/>
        <pt x="1024" y="1024" on="1"/>
        <pt x="2560" y="1024" on="1"/>
        <pt x="2560" y="512" on="1"/>
      </contour>
      <contour>
        <pt x="1536" y="3072" on="1"/>
        <pt x="1536" y="3584" on="1"/>
        <pt x="2048" y="3584" on="1"/>
        <pt x="2048" y="3072" on="1"/>
      </contour>
    </TTGlyph>
    <TTGlyph name="uni0639" xMin="0" yMin="0" xMax="2048" yMax="3072">
      <contour>
        <pt x="512" y="0" on="1"/>
        <pt x="512" y="512" on="1"/>
        <pt x="2048" y="512" on="1"/>
        <pt x="2048" y="0" on="1"/>
      </contour>
      <contour>
        <pt x="0" y="512" on="1"/>
        <pt x="0" y="1536" on="1"/>
        <pt x="512" y="1536" on="1"/>
        <pt x="512" y="512" on="1"/>
      </contour>
      <contour>
        <pt x="512" y="1536" on="1"/>
        <pt x="512" y="2048" on="1"/>
        <pt x="2048" y="2048" on="1"/>
        <pt x="2048" y="1536" on="1"/>
      </contour>
      <contour>
        <pt x="0" y="2048" on="1"/>
        <pt x="0" y="2560" on="1"/>
        <pt x="512" y="2560" on="1"/>
        <pt x="512" y="2048" on="1"/>
      </contour>
      <contour>
        <pt x="512" y="2560" on="1"/>
        <pt x="512" y="3072" on="1"/>
        <pt x="1536" y="3072" on="1"/>
        <pt x="1536" y="2560" on="1"/>
      </contour>
    </TTGlyph>
    <TTGlyph name="uni063A" xMin="0" yMin="0" xMax="2048" yMax="3584">
      <contour>
        <pt x="512" y="0" on="1"/>
        <pt x="512" y="512" on="1"/>
        <pt x="2048" y="512" on="1"/>
        <pt x="2048" y="0" on="1"/>
      </contour>
      <contour>
        <pt x="0" y="512" on="1"/>
        <pt x="0" y="1536" on="1"/>
        <pt x="512" y="1536" on="1"/>
        <pt x="512" y="512" on="1"/>
      </contour>
      <contour>
        <pt x="512" y="1536" on="1"/>
        <pt x="512" y="2048" on="1"/>
        <pt x="2048" y="2048" on="1"/>
        <pt x="2048" y="1536" on="1"/>
      </contour>
      <contour>
        <pt x="0" y="2048" on="1"/>
        <pt x="0" y="2560" on="1"/>
        <pt x="512" y="2560" on="1"/>
        <pt x="512" y="2048" on="1"/>
      </contour>
      <contour>
        <pt x="512" y="2560" on="1"/>
        <pt x="512" y="3584" on="1"/>
        <pt x="1024" y="3584" on="1"/>
        <pt x="1024" y="3072" on="1"/>
        <pt x="1536" y="3072" on="1"/>
        <pt x="1536" y="2560" on="1"/>
      </contour>
    </TTGlyph>
    <TTGlyph name="uni0641" xMin="0" yMin="512" xMax="3584" yMax="3584">
      <contour>
        <pt x="512" y="1536" on="1"/>
        <pt x="512" y="2048" on="1"/>
        <pt x="1024" y="2048" on="1"/>
        <pt x="1024" y="1536" on="1"/>
      </contour>
      <contour>
        <pt x="2048" y="1536" on="1"/>
        <pt x="2048" y="2048" on="1"/>
        <pt x="2560" y="2048" on="1"/>
        <pt x="2560" y="1536" on="1"/>
      </contour>
      <contour>
        <pt x="0" y="512" on="1"/>
        <pt x="0" y="1536" on="1"/>
        <pt x="512" y="1536" on="1"/>
        <pt x="512" y="1024" on="1"/>
        <pt x="2560" y="1024" on="1"/>
        <pt x="2560" y="1536" on="1"/>
        <pt x="3072" y="1536" on="1"/>
        <pt x="3072" y="2048" on="1"/>
        <pt x="2560" y="2048" on="1"/>
        <pt x="2560" y="2560" on="1"/>
        <pt x="3584" y="2560" on="1"/>
        <pt x="3584" y="512" on="1"/>
      </contour>
      <contour>
        <pt x="2560" y="3072" on="1"/>
        <pt x="2560" y="3584" on="1"/>
        <pt x="3072" y="3584" on="1"/>
        <pt x="3072" y="3072" on="1"/>
      </contour>
    </TTGlyph>
    <TTGlyph name="uni0642" xMin="0" yMin="0" xMax="3584" yMax="3584">
      <contour>
        <pt x="512" y="0" on="1"/>
        <pt x="512" y="512" on="1"/>
        <pt x="3072" y="512" on="1"/>
        <pt x="3072" y="0" on="1"/>
      </contour>
      <contour>
        <pt x="0" y="512" on="1"/>
        <pt x="0" y="1536" on="1"/>
        <pt x="512" y="1536" on="1"/>
        <pt x="512" y="512" on="1"/>
      </contour>
      <contour>
        <pt x="512" y="1536" on="1"/>
        <pt x="512" y="2048" on="1"/>
        <pt x="1024" y="2048" on="1"/>
        <pt x="1024" y="1536" on="1"/>
      </contour>
      <contour>
        <pt x="2048" y="1536" on="1"/>
        <pt x="2048" y="2048" on="1"/>
        <pt x="2560" y="2048" on="1"/>
        <pt x="2560" y="1536" on="1"/>
      </contour>
      <contour>
        <pt x="3072" y="512" on="1"/>
        <pt x="3072" y="1024" on="1"/>
        <pt x="2560" y="1024" on="1"/>
        <pt x="2560" y="1536" on="1"/>
        <pt x="3072" y="1536" on="1"/>
        <pt x="3072" y="2048" on="1"/>
        <pt x="2560" y="2048" on="1"/>
        <pt x="2560" y="2560" on="1"/>
        <pt x="3584" y="2560" on="1"/>
        <pt x="3584" y="512" on="1"/>
      </contour>
      <contour>
        <pt x="2048" y="3072" on="1"/>
        <pt x="2048" y="3584" on="1"/>
        <pt x="3584" y="3584" on="1"/>
        <pt x="3584" y="3072" on="1"/>
      </contour>
    </TTGlyph>
    <TTGlyph name="uni0643" xMin="0" yMin="512" xMax="3072" yMax="3584">
      <contour>
        <pt x="0" y="1024" on="1"/>
        <pt x="0" y="1536" on="1"/>
        <pt x="512" y="1536" on="1"/>
        <pt x="512" y="1024" on="1"/>
      </contour>
      <contour>
        <pt x="512" y="2048" on="1"/>
        <pt x="512" y="2560" on="1"/>
        <pt x="1024" y="2560" on="1"/>
        <pt x="1024" y="3072" on="1"/>
        <pt x="2048" y="3072" on="1"/>
        <pt x="2048" y="2560" on="1"/>
        <pt x="1536" y="2560" on="1"/>
        <pt x="1536" y="2048" on="1"/>
      </contour>
      <contour>
        <pt x="512" y="512" on="1"/>
        <pt x="512" y="1024" on="1"/>
        <pt x="2560" y="1024" on="1"/>
        <pt x="2560" y="3584" on="1"/>
        <pt x="3072" y="3584" on="1"/>
        <pt x="3072" y="512" on="1"/>
      </contour>
    </TTGlyph>
    <TTGlyph name="uni0644" xMin="0" yMin="0" xMax="3072" yMax="3584">
      <contour>
        <pt x="512" y="0" on="1"/>
        <pt x="512" y="512" on="1"/>
        <pt x="2560" y="512" on="1"/>
        <pt x="2560" y="0" on="1"/>
      </contour>
      <contour>
        <pt x="0" y="512" on="1"/>
        <pt x="0" y="1536" on="1"/>
        <pt x="512" y="1536" on="1"/>
        <pt x="512" y="512" on="1"/>
      </contour>
      <contour>
        <pt x="512" y="1536" on="1"/>
        <pt x="512" y="2048" on="1"/>
        <pt x="1024" y="2048" on="1"/>
        <pt x="1024" y="1536" on="1"/>
      </contour>
      <contour>
        <pt x="2560" y="512" on="1"/>
        <pt x="2560" y="3584" on="1"/>
        <pt x="3072" y="3584" on="1"/>
        <pt x="3072" y="512" on="1"/>
      </contour>
    </TTGlyph>
    <TTGlyph name="uni0645" xMin="0" yMin="-512" xMax="2560" yMax="2048">
      <contour>
        <pt x="0" y="-512" on="1"/>
        <pt x="0" y="512" on="1"/>
        <pt x="512" y="512" on="1"/>
        <pt x="512" y="-512" on="1"/>
      </contour>
      <contour>
        <pt x="512" y="512" on="1"/>
        <pt x="512" y="1024" on="1"/>
        <pt x="1024" y="1024" on="1"/>
        <pt x="1024" y="1536" on="1"/>
        <pt x="1536" y="1536" on="1"/>
        <pt x="1536" y="1024" on="1"/>
        <pt x="2048" y="1024" on="1"/>
        <pt x="2048" y="1536" on="1"/>
        <pt x="2560" y="1536" on="1"/>
        <pt x="2560" y="512" on="1"/>
      </contour>
      <contour>
        <pt x="1536" y="1536" on="1"/>
        <pt x="1536" y="2048" on="1"/>
        <pt x="2048" y="2048" on="1"/>
        <pt x="2048" y="1536" on="1"/>
      </contour>
    </TTGlyph>
    <TTGlyph name="uni0646" xMin="0" yMin="0" xMax="2560" yMax="3072">
      <contour>
        <pt x="512" y="0" on="1"/>
        <pt x="512" y="512" on="1"/>
        <pt x="2048" y="512" on="1"/>
        <pt x="2048" y="0" on="1"/>
      </contour>
      <contour>
        <pt x="0" y="512" on="1"/>
        <pt x="0" y="2048" on="1"/>
        <pt x="512" y="2048" on="1"/>
        <pt x="512" y="512" on="1"/>
      </contour>
      <contour>
        <pt x="2048" y="512" on="1"/>
        <pt x="2048" y="2048" on="1"/>
        <pt x="2560" y="2048" on="1"/>
        <pt x="2560" y="512" on="1"/>
      </contour>
      <contour>
        <pt x="1024" y="2560" on="1"/>
        <pt x="1024" y="3072" on="1"/>
        <pt x="1536" y="3072" on="1"/>
        <pt x="1536" y="2560" on="1"/>
      </contour>
    </TTGlyph>
    <TTGlyph name="uni0647" xMin="0" yMin="512" xMax="2048" yMax="2560">
      <contour>
        <pt x="512" y="512" on="1"/>
        <pt x="512" y="1024" on="1"/>
        <pt x="1536" y="1024" on="1"/>
        <pt x="1536" y="512" on="1"/>
      </contour>
      <contour>
        <pt x="0" y="1024" on="1"/>
        <pt x="0" y="2048" on="1"/>
        <pt x="512" y="2048" on="1"/>
        <pt x="512" y="1024" on="1"/>
      </contour>
      <contour>
        <pt x="1536" y="1024" on="1"/>
        <pt x="1536" y="2048" on="1"/>
        <pt x="512" y="2048" on="1"/>
        <pt x="512" y="2560" on="1"/>
        <pt x="2048" y="2560" on="1"/>
        <pt x="2048" y="1024" on="1"/>
      </contour>
    </TTGlyph>
    <TTGlyph name="uni0648" xMin="0" yMin="-512" xMax="2048" yMax="2560">
      <contour>
        <pt x="0" y="-512" on="1"/>
        <pt x="0" y="0" on="1"/>
        <pt x="1024" y="0" on="1"/>
        <pt x="1024" y="-512" on="1"/>
      </contour>
      <contour>
        <pt x="1024" y="0" on="1"/>
        <pt x="1024" y="512" on="1"/>
        <pt x="1536" y="512" on="1"/>
        <pt x="1536" y="0" on="1"/>
      </contour>
      <contour>
        <pt x="512" y="1536" on="1"/>
        <pt x="512" y="2048" on="1"/>
        <pt x="1024" y="2048" on="1"/>
        <pt x="1024" y="1536" on="1"/>
      </contour>
      <contour>
        <pt x="1536" y="512" on="1"/>
        <pt x="1536" y="1024" on="1"/>
        <pt x="1024" y="1024" on="1"/>
        <pt x="1024" y="1536" on="1"/>
        <pt x="1536" y="1536" on="1"/>
        <pt x="1536" y="2048" on="1"/>
        <pt x="1024" y="2048" on="1"/>
        <pt x="1024" y="2560" on="1"/>
        <pt x="2048" y="2560" on="1"/>
        <pt x="2048" y="512" on="1"/>
      </contour>
    </TTGlyph>
    <TTGlyph name="uni0649" xMin="0" yMin="512" xMax="2560" yMax="2560">
      <contour>
        <pt x="512" y="512" on="1"/>
        <pt x="512" y="1024" on="1"/>
        <pt x="2048" y="1024" on="1"/>
        <pt x="2048" y="512" on="1"/>
      </contour>
      <contour>
        <pt x="2048" y="1024" on="1"/>
        <pt x="2048" y="1536" on="1"/>
        <pt x="2560" y="1536" on="1"/>
        <pt x="2560" y="1024" on="1"/>
      </contour>
      <contour>
        <pt x="0" y="1024" on="1"/>
        <pt x="0" y="2048" on="1"/>
        <pt x="512" y="2048" on="1"/>
        <pt x="512" y="1024" on="1"/>
      </contour>
      <contour>
        <pt x="1536" y="1536" on="1"/>
        <pt x="1536" y="2048" on="1"/>
        <pt x="2048" y="2048" on="1"/>
        <pt x="2048" y="1536" on="1"/>
      </contour>
      <contour>
        <pt x="2048" y="2048" on="1"/>
        <pt x="2048" y="2560" on="1"/>
        <pt x="2560" y="2560" on="1"/>
        <pt x="2560" y="2048" on="1"/>
      </contour>
    </TTGlyph>
    <TTGlyph name="uni064A" xMin="0" yMin="-512" xMax="2560" yMax="2560">
      <contour>
        <pt x="512" y="-512" on="1"/>
        <pt x="512" y="0" on="1"/>
        <pt x="2048" y="0" on="1"/>
        <pt x="2048" y="-512" on="1"/>
      </contour>
      <contour>
        <pt x="512" y="512" on="1"/>
        <pt x="512" y="1024" on="1"/>
        <pt x="2048" y="1024" on="1"/>
        <pt x="2048" y="512" on="1"/>
      </contour>
      <contour>
        <pt x="2048" y="1024" on="1"/>
        <pt x="2048" y="1536" on="1"/>
        <pt x="2560" y="1536" on="1"/>
        <pt x="2560" y="1024" on="1"/>
      </contour>
      <contour>
        <pt x="0" y="1024" on="1"/>
        <pt x="0" y="2048" on="1"/>
        <pt x="512" y="2048" on="1"/>
        <pt x="512" y="1024" on="1"/>
      </contour>
      <contour>
        <pt x="1536" y="1536" on="1"/>
        <pt x="1536" y="2048" on="1"/>
        <pt x="2048" y="2048" on="1"/>
        <pt x="2048" y="1536" on="1"/>
      </contour>
      <contour>
        <pt x="2048" y="2048" on="1"/>
        <pt x="2048" y="2560" on="1"/>
        <pt x="2560" y="2560" on="1"/>
        <pt x="2560" y="2048" on="1"/>
      </contour>
    </TTGlyph>
    <TTGlyph name="uni0660" xMin="0" yMin="1024" xMax="1024" yMax="2048">
      <contour>
        <pt x="0" y="1024" on="1"/>
        <pt x="0" y="2048" on="1"/>
        <pt x="1024" y="2048" on="1"/>
        <pt x="1024" y="1024" on="1"/>
      </contour>
    </TTGlyph>
    <TTGlyph name="uni0661" xMin="0" yMin="512" xMax="512" yMax="3584">
      <contour>
        <pt x="0" y="512" on="1"/>
        <pt x="0" y="3584" on="1"/>
        <pt x="512" y="3584" on="1"/>
        <pt x="512" y="512" on="1"/>
      </contour>
    </TTGlyph>
    <TTGlyph name="uni0662" xMin="0" yMin="512" xMax="2048" yMax="3584">
      <contour>
        <pt x="0" y="512" on="1"/>
        <pt x="0" y="3584" on="1"/>
        <pt x="2048" y="3584" on="1"/>
        <pt x="2048" y="3072" on="1"/>
        <pt x="512" y="3072" on="1"/>
        <pt x="512" y="512" on="1"/>
      </contour>
    </TTGlyph>
    <TTGlyph name="uni0663" xMin="0" yMin="512" xMax="2560" yMax="3584">
      <contour>
        <pt x="0" y="512" on="1"/>
        <pt x="0" y="3584" on="1"/>
        <pt x="512" y="3584" on="1"/>
        <pt x="512" y="2560" on="1"/>
        <pt x="1024" y="2560" on="1"/>
        <pt x="1024" y="3584" on="1"/>
        <pt x="1536" y="3584" on="1"/>
        <pt x="1536" y="2560" on="1"/>
        <pt x="2048" y="2560" on="1"/>
        <pt x="2048" y="2048" on="1"/>
        <pt x="512" y="2048" on="1"/>
        <pt x="512" y="512" on="1"/>
      </contour>
      <contour>
        <pt x="2048" y="2560" on="1"/>
        <pt x="2048" y="3584" on="1"/>
        <pt x="2560" y="3584" on="1"/>
        <pt x="2560" y="2560" on="1"/>
      </contour>
    </TTGlyph>
    <TTGlyph name="uni0664" xMin="0" yMin="512" xMax="1536" yMax="3584">
      <contour>
        <pt x="512" y="512" on="1"/>
        <pt x="512" y="1024" on="1"/>
        <pt x="1536" y="1024" on="1"/>
        <pt x="1536" y="512" on="1"/>
      </contour>
      <contour>
        <pt x="0" y="1024" on="1"/>
        <pt x="0" y="2048" on="1"/>
        <pt x="512" y="2048" on="1"/>
        <pt x="512" y="1024" on="1"/>
      </contour>
      <contour>
        <pt x="512" y="2048" on="1"/>
        <pt x="512" y="2560" on="1"/>
        <pt x="1536" y="2560" on="1"/>
        <pt x="1536" y="2048" on="1"/>
      </contour>
      <contour>
        <pt x="0" y="2560" on="1"/>
        <pt x="0" y="3072" on="1"/>
        <pt x="512" y="3072" on="1"/>
        <pt x="512" y="2560" on="1"/>
      </contour>
      <contour>
        <pt x="512" y="3072" on="1"/>
        <pt x="512" y="3584" on="1"/>
        <pt x="1536" y="3584" on="1"/>
        <pt x="1536" y="3072" on="1"/>
      </contour>
    </TTGlyph>
    <TTGlyph name="uni0665" xMin="0" yMin="512" xMax="2048" yMax="2560">
      <contour>
        <pt x="512" y="512" on="1"/>
        <pt x="512" y="1024" on="1"/>
        <pt x="1536" y="1024" on="1"/>
        <pt x="1536" y="512" on="1"/>
      </contour>
      <contour>
        <pt x="0" y="1024" on="1"/>
        <pt x="0" y="2048" on="1"/>
        <pt x="512" y="2048" on="1"/>
        <pt x="512" y="1024" on="1"/>
      </contour>
      <contour>
        <pt x="1536" y="1024" on="1"/>
        <pt x="1536" y="2048" on="1"/>
        <pt x="2048" y="2048" on="1"/>
        <pt x="2048" y="1024" on="1"/>
      </contour>
      <contour>
        <pt x="512" y="2048" on="1"/>
        <pt x="512" y="2560" on="1"/>
        <pt x="1536" y="2560" on="1"/>
        <pt x="1536" y="2048" on="1"/>
      </contour>
    </TTGlyph>
    <TTGlyph name="uni0666" xMin="0" yMin="512" xMax="2048" yMax="3584">
      <contour>
        <pt x="1536" y="512" on="1"/>
        <pt x="1536" y="3072" on="1"/>
        <pt x="0" y="3072" on="1"/>
        <pt x="0" y="3584" on="1"/>
        <pt x="2048" y="3584" on="1"/>
        <pt x="2048" y="512" on="1"/>
      </contour>
    </TTGlyph>
    <TTGlyph name="uni0667" xMin="0" yMin="512" xMax="2560" yMax="3584">
      <contour>
        <pt x="1024" y="512" on="1"/>
        <pt x="1024" y="1024" on="1"/>
        <pt x="1536" y="1024" on="1"/>
        <pt x="1536" y="512" on="1"/>
      </contour>
      <contour>
        <pt x="512" y="1024" on="1"/>
        <pt x="512" y="2048" on="1"/>
        <pt x="1024" y="2048" on="1"/>
        <pt x="1024" y="1024" on="1"/>
      </contour>
      <contour>
        <pt x="1536" y="1024" on="1"/>
        <pt x="1536" y="2048" on="1"/>
        <pt x="2048" y="2048" on="1"/>
        <pt x="2048" y="1024" on="1"/>
      </contour>
      <contour>
        <pt x="0" y="2048" on="1"/>
        <pt x="0" y="3584" on="1"/>
        <pt x="512" y="3584" on="1"/>
        <pt x="512" y="2048" on="1"/>
      </contour>
      <contour>
        <pt x="2048" y="2048" on="1"/>
        <pt x="2048" y="3584" on="1"/>
        <pt x="2560" y="3584" on="1"/>
        <pt x="2560" y="2048" on="1"/>
      </contour>
    </TTGlyph>
    <TTGlyph name="uni0668" xMin="0" yMin="512" xMax="2560" yMax="3584">
      <contour>
        <pt x="0" y="512" on="1"/>
        <pt x="0" y="2048" on="1"/>
        <pt x="512" y="2048" on="1"/>
        <pt x="512" y="512" on="1"/>
      </contour>
      <contour>
        <pt x="2048" y="512" on="1"/>
        <pt x="2048" y="2048" on="1"/>
        <pt x="2560" y="2048" on="1"/>
        <pt x="2560" y="512" on="1"/>
      </contour>
      <contour>
        <pt x="512" y="2048" on="1"/>
        <pt x="512" y="3072" on="1"/>
        <pt x="1024" y="3072" on="1"/>
        <pt x="1024" y="2048" on="1"/>
      </contour>
      <contour>
        <pt x="1536" y="2048" on="1"/>
        <pt x="1536" y="3072" on="1"/>
        <pt x="2048" y="3072" on="1"/>
        <pt x="2048" y="2048" on="1"/>
      </contour>
      <contour>
        <pt x="1024" y="3072" on="1"/>
        <pt x="1024" y="3584" on="1"/>
        <pt x="1536" y="3584" on="1"/>
        <pt x="1536" y="3072" on="1"/>
      </contour>
    </TTGlyph>
    <TTGlyph name="uni0669" xMin="0" yMin="512" xMax="2048" yMax="3584">
      <contour>
        <pt x="0" y="2048" on="1"/>
        <pt x="0" y="3072" on="1"/>
        <pt x="512" y="3072" on="1"/>
        <pt x="512" y="2048" on="1"/>
      </contour>
      <contour>
        <pt x="1536" y="512" on="1"/>
        <pt x="1536" y="1536" on="1"/>
        <pt x="512" y="1536" on="1"/>
        <pt x="512" y="2048" on="1"/>
        <pt x="1536" y="2048" on="1"/>
        <pt x="1536" y="3072" on="1"/>
        <pt x="2048" y="3072" on="1"/>
        <pt x="2048" y="512" on="1"/>
      </contour>
      <contour>
        <pt x="512" y="3072" on="1"/>
        <pt x="512" y="3584" on="1"/>
        <pt x="1536" y="3584" on="1"/>
        <pt x="1536" y="3072" on="1"/>
      </contour>
    </TTGlyph>
    <TTGlyph name="uni066A" xMin="0" yMin="0" xMax="2560" yMax="3584">
      <contour>
        <pt x="0" y="0" on="1"/>
        <pt x="0" y="1024" on="1"/>
        <pt x="512" y="1024" on="1"/>
        <pt x="512" y="0" on="1"/>
      </contour>
      <contour>
        <pt x="1536" y="0" on="1"/>
        <pt x="1536" y="1024" on="1"/>
        <pt x="2560" y="1024" on="1"/>
        <pt x="2560" y="0" on="1"/>
      </contour>
      <contour>
        <pt x="512" y="1024" on="1"/>
        <pt x="512" y="1536" on="1"/>
        <pt x="1024" y="1536" on="1"/>
        <pt x="1024" y="1024" on="1"/>
      </contour>
      <contour>
        <pt x="1024" y="1536" on="1"/>
        <pt x="1024" y="2048" on="1"/>
        <pt x="1536" y="2048" on="1"/>
        <pt x="1536" y="1536" on="1"/>
      </contour>
      <contour>
        <pt x="1536" y="2048" on="1"/>
        <pt x="1536" y="2560" on="1"/>
        <pt x="2048" y="2560" on="1"/>
        <pt x="2048" y="2048" on="1"/>
      </contour>
      <contour>
        <pt x="0" y="2560" on="1"/>
        <pt x="0" y="3584" on="1"/>
        <pt x="1024" y="3584" on="1"/>
        <pt x="1024" y="2560" on="1"/>
      </contour>
      <contour>
        <pt x="2048" y="2560" on="1"/>
        <pt x="2048" y="3584" on="1"/>
        <pt x="2560" y="3584" on="1"/>
        <pt x="2560" y="2560" on="1"/>
      </contour>
    </TTGlyph>
    <TTGlyph name="uniFE8D" xMin="512" yMin="512" xMax="1024" yMax="2560">
      <contour>
        <pt x="512" y="512" on="1"/>
        <pt x="512" y="2560" on="1"/>
        <pt x="1024" y="2560" on="1"/>
        <pt x="1024" y="512" on="1"/>
      </contour>
    </TTGlyph>
    <TTGlyph name="uniFE8E" xMin="0" yMin="512" xMax="1024" yMax="2560">
      <contour>
        <pt x="0" y="512" on="1"/>
        <pt x="0" y="2560" on="1"/>
        <pt x="512" y="2560" on="1"/>
        <pt x="512" y="1024" on="1"/>
        <pt x="1024" y="1024" on="1"/>
        <pt x="1024" y="512" on="1"/>
      </contour>
    </TTGlyph>
    <TTGlyph name="uniFE8F" xMin="0" yMin="0" xMax="2560" yMax="2048">
      <contour>
        <pt x="1024" y="0" on="1"/>
        <pt x="1024" y="512" on="1"/>
        <pt x="1536" y="512" on="1"/>
        <pt x="1536" y="0" on="1"/>
      </contour>
      <contour>
        <pt x="0" y="1024" on="1"/>
        <pt x="0" y="2048" on="1"/>
        <pt x="512" y="2048" on="1"/>
        <pt x="512" y="1536" on="1"/>
        <pt x="2048" y="1536" on="1"/>
        <pt x="2048" y="2048" on="1"/>
        <pt x="2560" y="2048" on="1"/>
        <pt x="2560" y="1024" on="1"/>
      </contour>
    </TTGlyph>
    <TTGlyph name="uniFE90" xMin="0" yMin="0" xMax="2560" yMax="2048">
      <contour>
        <pt x="0" y="1024" on="1"/>
        <pt x="0" y="2048" on="1"/>
        <pt x="512" y="2048" on="1"/>
        <pt x="512" y="1024" on="1"/>
      </contour>
      <contour>
        <pt x="1024" y="0" on="1"/>
        <pt x="1024" y="512" on="1"/>
        <pt x="512" y="512" on="1"/>
        <pt x="512" y="1024" on="1"/>
        <pt x="2048" y="1024" on="1"/>
        <pt x="2048" y="2048" on="1"/>
        <pt x="2560" y="2048" on="1"/>
        <pt x="2560" y="512" on="1"/>
        <pt x="1536" y="512" on="1"/>
        <pt x="1536" y="0" on="1"/>
      </contour>
    </TTGlyph>
    <TTGlyph name="uniFE95" xMin="0" yMin="1024" xMax="2560" yMax="3072">
      <contour>
        <pt x="0" y="1024" on="1"/>
        <pt x="0" y="2048" on="1"/>
        <pt x="512" y="2048" on="1"/>
        <pt x="512" y="1536" on="1"/>
        <pt x="2048" y="1536" on="1"/>
        <pt x="2048" y="2048" on="1"/>
        <pt x="2560" y="2048" on="1"/>
        <pt x="2560" y="1024" on="1"/>
      </contour>
      <contour>
        <pt x="512" y="2560" on="1"/>
        <pt x="512" y="3072" on="1"/>
        <pt x="2048" y="3072" on="1"/>
        <pt x="2048" y="2560" on="1"/>
      </contour>
    </TTGlyph>
    <TTGlyph name="uniFE96" xMin="0" yMin="512" xMax="2560" yMax="3072">
      <contour>
        <pt x="0" y="1024" on="1"/>
        <pt x="0" y="2048" on="1"/>
        <pt x="512" y="2048" on="1"/>
        <pt x="512" y="1024" on="1"/>
      </contour>
      <contour>
        <pt x="512" y="512" on="1"/>
        <pt x="512" y="1024" on="1"/>
        <pt x="2048" y="1024" on="1"/>
        <pt x="2048" y="2048" on="1"/>
        <pt x="2560" y="2048" on="1"/>
        <pt x="2560" y="512" on="1"/>
      </contour>
      <contour>
        <pt x="512" y="2560" on="1"/>
        <pt x="512" y="3072" on="1"/>
        <pt x="2048" y="3072" on="1"/>
        <pt x="2048" y="2560" on="1"/>
      </contour>
    </TTGlyph>
    <TTGlyph name="uniFE99" xMin="0" yMin="1024" xMax="2560" yMax="3584">
      <contour>
        <pt x="0" y="1024" on="1"/>
        <pt x="0" y="2048" on="1"/>
        <pt x="512" y="2048" on="1"/>
        <pt x="512" y="1536" on="1"/>
        <pt x="2048" y="1536" on="1"/>
        <pt x="2048" y="2048" on="1"/>
        <pt x="2560" y="2048" on="1"/>
        <pt x="2560" y="1024" on="1"/>
      </contour>
      <contour>
        <pt x="512" y="2560" on="1"/>
        <pt x="512" y="3072" on="1"/>
        <pt x="1024" y="3072" on="1"/>
        <pt x="1024" y="3584" on="1"/>
        <pt x="1536" y="3584" on="1"/>
        <pt x="1536" y="3072" on="1"/>
        <pt x="2048" y="3072" on="1"/>
        <pt x="2048" y="2560" on="1"/>
      </contour>
    </TTGlyph>
    <TTGlyph name="uniFE9A" xMin="0" yMin="512" xMax="2560" yMax="3584">
      <contour>
        <pt x="0" y="1024" on="1"/>
        <pt x="0" y="2048" on="1"/>
        <pt x="512" y="2048" on="1"/>
        <pt x="512" y="1024" on="1"/>
      </contour>
      <contour>
        <pt x="512" y="512" on="1"/>
        <pt x="512" y="1024" on="1"/>
        <pt x="2048" y="1024" on="1"/>
        <pt x="2048" y="2048" on="1"/>
        <pt x="2560" y="2048" on="1"/>
        <pt x="2560" y="512" on="1"/>
      </contour>
      <contour>
        <pt x="512" y="2560" on="1"/>
        <pt x="512" y="3072" on="1"/>
        <pt x="1024" y="3072" on="1"/>
        <pt x="1024" y="3584" on="1"/>
        <pt x="1536" y="3584" on="1"/>
        <pt x="1536" y="3072" on="1"/>
        <pt x="2048" y="3072" on="1"/>
        <pt x="2048" y="2560" on="1"/>
      </contour>
    </TTGlyph>
    <TTGlyph name="uniFE9D" xMin="0" yMin="0" xMax="2048" yMax="3072">
      <contour>
        <pt x="512" y="0" on="1"/>
        <pt x="512" y="512" on="1"/>
        <pt x="2048" y="512" on="1"/>
        <pt x="2048" y="0" on="1"/>
      </contour>
      <contour>
        <pt x="0" y="512" on="1"/>
        <pt x="0" y="2048" on="1"/>
        <pt x="1536" y="2048" on="1"/>
        <pt x="1536" y="2560" on="1"/>
        <pt x="0" y="2560" on="1"/>
        <pt x="0" y="3072" on="1"/>
        <pt x="2048" y="3072" on="1"/>
        <pt x="2048" y="1536" on="1"/>
        <pt x="1536" y="1536" on="1"/>
        <pt x="1536" y="1024" on="1"/>
        <pt x="1024" y="1024" on="1"/>
        <pt x="1024" y="1536" on="1"/>
        <pt x="512" y="1536" on="1"/>
        <pt x="512" y="512" on="1"/>
      </contour>
    </TTGlyph>
    <TTGlyph name="uniFE9E" xMin="0" yMin="0" xMax="2560" yMax="3072">
      <contour>
        <pt x="512" y="0" on="1"/>
        <pt x="512" y="512" on="1"/>
        <pt x="2048" y="512" on="1"/>
        <pt x="2048" y="0" on="1"/>
      </contour>
      <contour>
        <pt x="0" y="512" on="1"/>
        <pt x="0" y="2048" on="1"/>
        <pt x="1536" y="2048" on="1"/>
        <pt x="1536" y="2560" on="1"/>
        <pt x="0" y="2560" on="1"/>
        <pt x="0" y="3072" on="1"/>
        <pt x="2048" y="3072" on="1"/>
        <pt x="2048" y="2048" on="1"/>
        <pt x="2560" y="2048" on="1"/>
        <pt x="2560" y="1536" on="1"/>
        <pt x="1536" y="1536" on="1"/>
        <pt x="1536" y="1024" on="1"/>
        <pt x="1024" y="1024" on="1"/>
        <pt x="1024" y="1536" on="1"/>
        <pt x="512" y="1536" on="1"/>
        <pt x="512" y="512" on="1"/>
      </contour>
    </TTGlyph>
    <TTGlyph name="uniFEA0" xMin="0" yMin="-512" xMax="2560" yMax="2560">
      <contour>
        <pt x="1024" y="-512" on="1"/>
        <pt x="1024" y="0" on="1"/>
        <pt x="1536" y="0" on="1"/>
        <pt x="1536" y="-512" on="1"/>
      </contour>
      <contour>
        <pt x="0" y="512" on="1"/>
        <pt x="0" y="1024" on="1"/>
        <pt x="1536" y="1024" on="1"/>
        <pt x="1536" y="2048" on="1"/>
        <pt x="2048" y="2048" on="1"/>
        <pt x="2048" y="1024" on="1"/>
        <pt x="2560" y="1024" on="1"/>
        <pt x="2560" y="512" on="1"/>
      </contour>
      <contour>
        <pt x="512" y="2048" on="1"/>
        <pt x="512" y="2560" on="1"/>
        <pt x="1536" y="2560" on="1"/>
        <pt x="1536" y="2048" on="1"/>
      </contour>
    </TTGlyph>
    <TTGlyph name="uniFEA1" xMin="0" yMin="0" xMax="2048" yMax="3072">
      <contour>
        <pt x="512" y="0" on="1"/>
        <pt x="512" y="512" on="1"/>
        <pt x="2048" y="512" on="1"/>
        <pt x="2048" y="0" on="1"/>
      </contour>
      <contour>
        <pt x="0" y="512" on="1"/>
        <pt x="0" y="2048" on="1"/>
        <pt x="1536" y="2048" on="1"/>
        <pt x="1536" y="2560" on="1"/>
        <pt x="0" y="2560" on="1"/>
        <pt x="0" y="3072" on="1"/>
        <pt x="2048" y="3072" on="1"/>
        <pt x="2048" y="1536" on="1"/>
        <pt x="512" y="1536" on="1"/>
        <pt x="512" y="512" on="1"/>
      </contour>
    </TTGlyph>
    <TTGlyph name="uniFEA2" xMin="0" yMin="0" xMax="2560" yMax="3072">
      <contour>
        <pt x="512" y="0" on="1"/>
        <pt x="512" y="512" on="1"/>
        <pt x="2048" y="512" on="1"/>
        <pt x="2048" y="0" on="1"/>
      </contour>
      <contour>
        <pt x="0" y="512" on="1"/>
        <pt x="0" y="2048" on="1"/>
        <pt x="1536" y="2048" on="1"/>
        <pt x="1536" y="2560" on="1"/>
        <pt x="0" y="2560" on="1"/>
        <pt x="0" y="3072" on="1"/>
        <pt x="2048" y="3072" on="1"/>
        <pt x="2048" y="2048" on="1"/>
        <pt x="2560" y="2048" on="1"/>
        <pt x="2560" y="1536" on="1"/>
        <pt x="512" y="1536" on="1"/>
        <pt x="512" y="512" on="1"/>
      </contour>
    </TTGlyph>
    <TTGlyph name="uniFEA3" xMin="0" yMin="512" xMax="2048" yMax="2560">
      <contour>
        <pt x="0" y="512" on="1"/>
        <pt x="0" y="1024" on="1"/>
        <pt x="1536" y="1024" on="1"/>
        <pt x="1536" y="2048" on="1"/>
        <pt x="2048" y="2048" on="1"/>
        <pt x="2048" y="512" on="1"/>
      </contour>
      <contour>
        <pt x="512" y="2048" on="1"/>
        <pt x="512" y="2560" on="1"/>
        <pt x="1536" y="2560" on="1"/>
        <pt x="1536" y="2048" on="1"/>
      </contour>
    </TTGlyph>
    <TTGlyph name="uniFEA4" xMin="0" yMin="512" xMax="2560" yMax="2560">
      <contour>
        <pt x="0" y="512" on="1"/>
        <pt x="0" y="1024" on="1"/>
        <pt x="1536" y="1024" on="1"/>
        <pt x="1536" y="2048" on="1"/>
        <pt x="2048" y="2048" on="1"/>
        <pt x="2048" y="1024" on="1"/>
        <pt x="2560" y="1024" on="1"/>
        <pt x="2560" y="512" on="1"/>
      </contour>
      <contour>
        <pt x="512" y="2048" on="1"/>
        <pt x="512" y="2560" on="1"/>
        <pt x="1536" y="2560" on="1"/>
        <pt x="1536" y="2048" on="1"/>
      </contour>
    </TTGlyph>
    <TTGlyph name="uniFEA5" xMin="0" yMin="0" xMax="2048" yMax="3584">
      <contour>
        <pt x="512" y="0" on="1"/>
        <pt x="512" y="512" on="1"/>
        <pt x="2048" y="512" on="1"/>
        <pt x="2048" y="0" on="1"/>
      </contour>
      <contour>
        <pt x="0" y="512" on="1"/>
        <pt x="0" y="2048" on="1"/>
        <pt x="1536" y="2048" on="1"/>
        <pt x="1536" y="2560" on="1"/>
        <pt x="0" y="2560" on="1"/>
        <pt x="0" y="3072" on="1"/>
        <pt x="1024" y="3072" on="1"/>
        <pt x="1024" y="3584" on="1"/>
        <pt x="1536" y="3584" on="1"/>
        <pt x="1536" y="3072" on="1"/>
        <pt x="2048" y="3072" on="1"/>
        <pt x="2048" y="1536" on="1"/>
        <pt x="512" y="1536" on="1"/>
        <pt x="512" y="512" on="1"/>
      </contour>
    </TTGlyph>
    <TTGlyph name="uniFEA6" xMin="0" yMin="0" xMax="2560" yMax="3584">
      <contour>
        <pt x="512" y="0" on="1"/>
        <pt x="512" y="512" on="1"/>
        <pt x="2048" y="512" on="1"/>
        <pt x="2048" y="0" on="1"/>
      </contour>
      <contour>
        <pt x="0" y="512" on="1"/>
        <pt x="0" y="2048" on="1"/>
        <pt x="1536" y="2048" on="1"/>
        <pt x="1536" y="2560" on="1"/>
        <pt x="0" y="2560" on="1"/>
        <pt x="0" y="3072" on="1"/>
        <pt x="1024" y="3072" on="1"/>
        <pt x="1024" y="3584" on="1"/>
        <pt x="1536" y="3584" on="1"/>
        <pt x="1536" y="3072" on="1"/>
        <pt x="2048" y="3072" on="1"/>
        <pt x="2048" y="2048" on="1"/>
        <pt x="2560" y="2048" on="1"/>
        <pt x="2560" y="1536" on="1"/>
        <pt x="512" y="1536" on="1"/>
        <pt x="512" y="512" on="1"/>
      </contour>
    </TTGlyph>
    <TTGlyph name="uniFEA8" xMin="0" yMin="512" xMax="2560" yMax="3584">
      <contour>
        <pt x="0" y="512" on="1"/>
        <pt x="0" y="1024" on="1"/>
        <pt x="1536" y="1024" on="1"/>
        <pt x="1536" y="2048" on="1"/>
        <pt x="2048" y="2048" on="1"/>
        <pt x="2048" y="1024" on="1"/>
        <pt x="2560" y="1024" on="1"/>
        <pt x="2560" y="512" on="1"/>
      </contour>
      <contour>
        <pt x="512" y="2048" on="1"/>
        <pt x="512" y="2560" on="1"/>
        <pt x="1536" y="2560" on="1"/>
        <pt x="1536" y="2048" on="1"/>
      </contour>
      <contour>
        <pt x="1024" y="3072" on="1"/>
        <pt x="1024" y="3584" on="1"/>
        <pt x="1536" y="3584" on="1"/>
        <pt x="1536" y="3072" on="1"/>
      </contour>
    </TTGlyph>
    <TTGlyph name="uniFEA9" xMin="0" yMin="1024" xMax="2048" yMax="3584">
      <contour>
        <pt x="0" y="1024" on="1"/>
        <pt x="0" y="1536" on="1"/>
        <pt x="1536" y="1536" on="1"/>
        <pt x="1536" y="2048" on="1"/>
        <pt x="2048" y="2048" on="1"/>
        <pt x="2048" y="1024" on="1"/>
      </contour>
      <contour>
        <pt x="512" y="2048" on="1"/>
        <pt x="512" y="2560" on="1"/>
        <pt x="1536" y="2560" on="1"/>
        <pt x="1536" y="2048" on="1"/>
      </contour>
      <contour>
        <pt x="512" y="3072" on="1"/>
        <pt x="512" y="3584" on="1"/>
        <pt x="1024" y="3584" on="1"/>
        <pt x="1024" y="3072" on="1"/>
      </contour>
    </TTGlyph>
    <TTGlyph name="uniFEAA" xMin="0" yMin="512" xMax="2048" yMax="2560">
      <contour>
        <pt x="0" y="512" on="1"/>
        <pt x="0" y="1024" on="1"/>
        <pt x="1536" y="1024" on="1"/>
        <pt x="1536" y="2048" on="1"/>
        <pt x="2048" y="2048" on="1"/>
        <pt x="2048" y="512" on="1"/>
      </contour>
      <contour>
        <pt x="512" y="2048" on="1"/>
        <pt x="512" y="2560" on="1"/>
        <pt x="1536" y="2560" on="1"/>
        <pt x="1536" y="2048" on="1"/>
      </contour>
    </TTGlyph>
    <TTGlyph name="uniFEAB" xMin="0" yMin="1024" xMax="2048" yMax="3584">
      <contour>
        <pt x="0" y="1024" on="1"/>
        <pt x="0" y="1536" on="1"/>
        <pt x="1536" y="1536" on="1"/>
        <pt x="1536" y="2048" on="1"/>
        <pt x="2048" y="2048" on="1"/>
        <pt x="2048" y="1024" on="1"/>
      </contour>
      <contour>
        <pt x="512" y="2048" on="1"/>
        <pt x="512" y="2560" on="1"/>
        <pt x="1536" y="2560" on="1"/>
        <pt x="1536" y="2048" on="1"/>
      </contour>
      <contour>
        <pt x="512" y="3072" on="1"/>
        <pt x="512" y="3584" on="1"/>
        <pt x="1024" y="3584" on="1"/>
        <pt x="1024" y="3072" on="1"/>
      </contour>
    </TTGlyph>
    <TTGlyph name="uniFEAC" xMin="0" yMin="512" xMax="2048" yMax="3584">
      <contour>
        <pt x="0" y="512" on="1"/>
        <pt x="0" y="1024" on="1"/>
        <pt x="1536" y="1024" on="1"/>
        <pt x="1536" y="2048" on="1"/>
        <pt x="2048" y="2048" on="1"/>
        <pt x="2048" y="512" on="1"/>
      </contour>
      <contour>
        <pt x="512" y="2048" on="1"/>
        <pt x="512" y="2560" on="1"/>
        <pt x="1536" y="2560" on="1"/>
        <pt x="1536" y="2048" on="1"/>
      </contour>
      <contour>
        <pt x="512" y="3072" on="1"/>
        <pt x="512" y="3584" on="1"/>
        <pt x="1024" y="3584" on="1"/>
        <pt x="1024" y="3072" on="1"/>
      </contour>
    </TTGlyph>
    <TTGlyph name="uniFEAD" xMin="0" yMin="0" xMax="2048" yMax="2560">
      <contour>
        <pt x="0" y="0" on="1"/>
        <pt x="0" y="512" on="1"/>
        <pt x="1024" y="512" on="1"/>
        <pt x="1024" y="0" on="1"/>
      </contour>
      <contour>
        <pt x="1024" y="512" on="1"/>
        <pt x="1024" y="1024" on="1"/>
        <pt x="1536" y="1024" on="1"/>
        <pt x="1536" y="512" on="1"/>
      </contour>
      <contour>
        <pt x="1536" y="1024" on="1"/>
        <pt x="1536" y="2560" on="1"/>
        <pt x="2048" y="2560" on="1"/>
        <pt x="2048" y="1024" on="1"/>
      </contour>
    </TTGlyph>
    <TTGlyph name="uniFEAE" xMin="0" yMin="-512" xMax="2048" yMax="2048">
      <contour>
        <pt x="0" y="-512" on="1"/>
        <pt x="0" y="0" on="1"/>
        <pt x="1024" y="0" on="1"/>
        <pt x="1024" y="-512" on="1"/>
      </contour>
      <contour>
        <pt x="1024" y="0" on="1"/>
        <pt x="1024" y="512" on="1"/>
        <pt x="1536" y="512" on="1"/>
        <pt x="1536" y="0" on="1"/>
      </contour>
      <contour>
        <pt x="1536" y="512" on="1"/>
        <pt x="1536" y="2048" on="1"/>
        <pt x="2048" y="2048" on="1"/>
        <pt x="2048" y="512" on="1"/>
      </contour>
    </TTGlyph>
    <TTGlyph name="uniFEAF" xMin="0" yMin="0" xMax="2048" yMax="2560">
      <contour>
        <pt x="0" y="0" on="1"/>
        <pt x="0" y="512" on="1"/>
        <pt x="1024" y="512" on="1"/>
        <pt x="1024" y="0" on="1"/>
      </contour>
      <contour>
        <pt x="1024" y="512" on="1"/>
        <pt x="1024" y="1024" on="1"/>
        <pt x="1536" y="1024" on="1"/>
        <pt x="1536" y="512" on="1"/>
      </contour>
      <contour>
        <pt x="1536" y="1024" on="1"/>
        <pt x="1536" y="2560" on="1"/>
        <pt x="2048" y="2560" on="1"/>
        <pt x="2048" y="1024" on="1"/>
      </contour>
    </TTGlyph>
    <TTGlyph name="uniFEB0" xMin="0" yMin="-512" xMax="2048" yMax="3072">
      <contour>
        <pt x="0" y="-512" on="1"/>
        <pt x="0" y="0" on="1"/>
        <pt x="1024" y="0" on="1"/>
        <pt x="1024" y="-512" on="1"/>
      </contour>
      <contour>
        <pt x="1024" y="0" on="1"/>
        <pt x="1024" y="512" on="1"/>
        <pt x="1536" y="512" on="1"/>
        <pt x="1536" y="0" on="1"/>
      </contour>
      <contour>
        <pt x="1536" y="512" on="1"/>
        <pt x="1536" y="2048" on="1"/>
        <pt x="2048" y="2048" on="1"/>
        <pt x="2048" y="512" on="1"/>
      </contour>
      <contour>
        <pt x="1536" y="2560" on="1"/>
        <pt x="1536" y="3072" on="1"/>
        <pt x="2048" y="3072" on="1"/>
        <pt x="2048" y="2560" on="1"/>
      </contour>
    </TTGlyph>
    <TTGlyph name="uniFEB1" xMin="0" yMin="0" xMax="4096" yMax="2048">
      <contour>
        <pt x="512" y="0" on="1"/>
        <pt x="512" y="512" on="1"/>
        <pt x="1536" y="512" on="1"/>
        <pt x="1536" y="0" on="1"/>
      </contour>
      <contour>
        <pt x="0" y="512" on="1"/>
        <pt x="0" y="2048" on="1"/>
        <pt x="512" y="2048" on="1"/>
        <pt x="512" y="512" on="1"/>
      </contour>
      <contour>
        <pt x="1536" y="512" on="1"/>
        <pt x="1536" y="2048" on="1"/>
        <pt x="2048" y="2048" on="1"/>
        <pt x="2048" y="1536" on="1"/>
        <pt x="2560" y="1536" on="1"/>
        <pt x="2560" y="2048" on="1"/>
        <pt x="3072" y="2048" on="1"/>
        <pt x="3072" y="1536" on="1"/>
        <pt x="3584" y="1536" on="1"/>
        <pt x="3584" y="1024" on="1"/>
        <pt x="2048" y="1024" on="1"/>
        <pt x="2048" y="512" on="1"/>
      </contour>
      <contour>
        <pt x="3584" y="1536" on="1"/>
        <pt x="3584" y="2048" on="1"/>
        <pt x="4096" y="2048" on="1"/>
        <pt x="4096" y="1536" on="1"/>
      </contour>
    </TTGlyph>
    <TTGlyph name="uniFEB2" xMin="0" yMin="0" xMax="4096" yMax="2048">
      <contour>
        <pt x="512" y="0" on="1"/>
        <pt x="512" y="512" on="1"/>
        <pt x="1536" y="512" on="1"/>
        <pt x="1536" y="0" on="1"/>
      </contour>
      <contour>
        <pt x="0" y="512" on="1"/>
        <pt x="0" y="2048" on="1"/>
        <pt x="512" y="2048" on="1"/>
        <pt x="512" y="512" on="1"/>
      </contour>
      <contour>
        <pt x="1536" y="512" on="1"/>
        <pt x="1536" y="2048" on="1"/>
        <pt x="2048" y="2048" on="1"/>
        <pt x="2048" y="1024" on="1"/>
        <pt x="2560" y="1024" on="1"/>
        <pt x="2560" y="2048" on="1"/>
        <pt x="3072" y="2048" on="1"/>
        <pt x="3072" y="1024" on="1"/>
        <pt x="3584" y="1024" on="1"/>
        <pt x="3584" y="2048" on="1"/>
        <pt x="4096" y="2048" on="1"/>
        <pt x="4096" y="512" on="1"/>
      </contour>
    </TTGlyph>
    <TTGlyph name="uniFEB5" xMin="0" yMin="0" xMax="4096" yMax="3584">
      <contour>
        <pt x="512" y="0" on="1"/>
        <pt x="512" y="512" on="1"/>
        <pt x="1536" y="512" on="1"/>
        <pt x="1536" y="0" on="1"/>
      </contour>
      <contour>
        <pt x="0" y="512" on="1"/>
        <pt x="0" y="2048" on="1"/>
        <pt x="512" y="2048" on="1"/>
        <pt x="512" y="512" on="1"/>
      </contour>
      <contour>
        <pt x="1536" y="512" on="1"/>
        <pt x="1536" y="2048" on="1"/>
        <pt x="2048" y="2048" on="1"/>
        <pt x="2048" y="1536" on="1"/>
        <pt x="2560" y="1536" on="1"/>
        <pt x="2560" y="2048" on="1"/>
        <pt x="3072" y="2048" on="1"/>
        <pt x="3072" y="1536" on="1"/>
        <pt x="3584" y="1536" on="1"/>
        <pt x="3584" y="1024" on="1"/>
        <pt x="2048" y="1024" on="1"/>
        <pt x="2048" y="512" on="1"/>
      </contour>
      <contour>
        <pt x="3584" y="1536" on="1"/>
        <pt x="3584" y="2048" on="1"/>
        <pt x="4096" y="2048" on="1"/>
        <pt x="4096" y="1536" on="1"/>
      </contour>
      <contour>
        <pt x="2048" y="2560" on="1"/>
        <pt x="2048" y="3072" on="1"/>
        <pt x="2560" y="3072" on="1"/>
        <pt x="2560" y="3584" on="1"/>
        <pt x="3072" y="3584" on="1"/>
        <pt x="3072" y="3072" on="1"/>
        <pt x="3584" y="3072" on="1"/>
        <pt x="3584" y="2560" on="1"/>
      </contour>
    </TTGlyph>
    <TTGlyph name="uniFEB6" xMin="0" yMin="0" xMax="4096" yMax="3584">
      <contour>
        <pt x="512" y="0" on="1"/>
        <pt x="512" y="512" on="1"/>
        <pt x="1536" y="512" on="1"/>
        <pt x="1536" y="0" on="1"/>
      </contour>
      <contour>
        <pt x="0" y="512" on="1"/>
        <pt x="0" y="2048" on="1"/>
        <pt x="512" y="2048" on="1"/>
        <pt x="512" y="512" on="1"/>
      </contour>
      <contour>
        <pt x="1536" y="512" on="1"/>
        <pt x="1536" y="2048" on="1"/>
        <pt x="2048" y="2048" on="1"/>
        <pt x="2048" y="1024" on="1"/>
        <pt x="2560" y="1024" on="1"/>
        <pt x="2560" y="2048" on="1"/>
        <pt x="3072" y="2048" on="1"/>
        <pt x="3072" y="1024" on="1"/>
        <pt x="3584" y="1024" on="1"/>
        <pt x="3584" y="2048" on="1"/>
        <pt x="4096" y="2048" on="1"/>
        <pt x="4096" y="512" on="1"/>
      </contour>
      <contour>
        <pt x="2048" y="2560" on="1"/>
        <pt x="2048" y="3072" on="1"/>
        <pt x="2560" y="3072" on="1"/>
        <pt x="2560" y="3584" on="1"/>
        <pt x="3072" y="3584" on="1"/>
        <pt x="3072" y="3072" on="1"/>
        <pt x="3584" y="3072" on="1"/>
        <pt x="3584" y="2560" on="1"/>
      </contour>
    </TTGlyph>
    <TTGlyph name="uniFEB9" xMin="0" yMin="0" xMax="4096" yMax="2560">
      <contour>
        <pt x="512" y="0" on="1"/>
        <pt x="512" y="512" on="1"/>
        <pt x="1536" y="512" on="1"/>
        <pt x="1536" y="0" on="1"/>
      </contour>
      <contour>
        <pt x="0" y="512" on="1"/>
        <pt x="0" y="2048" on="1"/>
        <pt x="512" y="2048" on="1"/>
        <pt x="512" y="512" on="1"/>
      </contour>
      <contour>
        <pt x="1536" y="512" on="1"/>
        <pt x="1536" y="2048" on="1"/>
        <pt x="2048" y="2048" on="1"/>
        <pt x="2048" y="1536" on="1"/>
        <pt x="3584" y="1536" on="1"/>
        <pt x="3584" y="2048" on="1"/>
        <pt x="4096" y="2048" on="1"/>
        <pt x="4096" y="1024" on="1"/>
        <pt x="2048" y="1024" on="1"/>
        <pt x="2048" y="512" on="1"/>
      </contour>
      <contour>
        <pt x="2048" y="2048" on="1"/>
        <pt x="2048" y="2560" on="1"/>
        <pt x="3584" y="2560" on="1"/>
        <pt x="3584" y="2048" on="1"/>
      </contour>
    </TTGlyph>
    <TTGlyph name="uniFEBA" xMin="0" yMin="0" xMax="4096" yMax="2560">
      <contour>
        <pt x="512" y="0" on="1"/>
        <pt x="512" y="512" on="1"/>
        <pt x="1536" y="512" on="1"/>
        <pt x="1536" y="0" on="1"/>
      </contour>
      <contour>
        <pt x="0" y="512" on="1"/>
        <pt x="0" y="2048" on="1"/>
        <pt x="512" y="2048" on="1"/>
        <pt x="512" y="512" on="1"/>
      </contour>
      <contour>
        <pt x="1536" y="512" on="1"/>
        <pt x="1536" y="2048" on="1"/>
        <pt x="2560" y="2048" on="1"/>
        <pt x="2560" y="1536" on="1"/>
        <pt x="2048" y="1536" on="1"/>
        <pt x="2048" y="1024" on="1"/>
        <pt x="3584" y="1024" on="1"/>
        <pt x="3584" y="2048" on="1"/>
        <pt x="4096" y="2048" on="1"/>
        <pt x="4096" y="512" on="1"/>
      </contour>
      <contour>
        <pt x="2560" y="2048" on="1"/>
        <pt x="2560" y="2560" on="1"/>
        <pt x="3584" y="2560" on="1"/>
        <pt x="3584" y="2048" on="1"/>
      </contour>
    </TTGlyph>
    <TTGlyph name="uniFEBD" xMin="0" yMin="0" xMax="4096" yMax="3584">
      <contour>
        <pt x="512" y="0" on="1"/>
        <pt x="512" y="512" on="1"/>
        <pt x="1536" y="512" on="1"/>
        <pt x="1536" y="0" on="1"/>
      </contour>
      <contour>
        <pt x="0" y="512" on="1"/>
        <pt x="0" y="2048" on="1"/>
        <pt x="512" y="2048" on="1"/>
        <pt x="512" y="512" on="1"/>
      </contour>
      <contour>
        <pt x="1536" y="512" on="1"/>
        <pt x="1536" y="2048" on="1"/>
        <pt x="2048" y="2048" on="1"/>
        <pt x="2048" y="1536" on="1"/>
        <pt x="3584" y="1536" on="1"/>
        <pt x="3584" y="2048" on="1"/>
        <pt x="4096" y="2048" on="1"/>
        <pt x="4096" y="1024" on="1"/>
        <pt x="2048" y="1024" on="1"/>
        <pt x="2048" y="512" on="1"/>
      </contour>
      <contour>
        <pt x="2048" y="2048" on="1"/>
        <pt x="2048" y="2560" on="1"/>
        <pt x="3584" y="2560" on="1"/>
        <pt x="3584" y="2048" on="1"/>
      </contour>
      <contour>
        <pt x="2560" y="3072" on="1"/>
        <pt x="2560" y="3584" on="1"/>
        <pt x="3072" y="3584" on="1"/>
        <pt x="3072" y="3072" on="1"/>
      </contour>
    </TTGlyph>
    <TTGlyph name="uniFEBE" xMin="0" yMin="0" xMax="4096" yMax="3584">
      <contour>
        <pt x="512" y="0" on="1"/>
        <pt x="512" y="512" on="1"/>
        <pt x="1536" y="512" on="1"/>
        <pt x="1536" y="0" on="1"/>
      </contour>
      <contour>
        <pt x="0" y="512" on="1"/>
        <pt x="0" y="2048" on="1"/>
        <pt x="512" y="2048" on="1"/>
        <pt x="512" y="512" on="1"/>
      </contour>
      <contour>
        <pt x="1536" y="512" on="1"/>
        <pt x="1536" y="2048" on="1"/>
        <pt x="2560" y="2048" on="1"/>
        <pt x="2560" y="1536" on="1"/>
        <pt x="2048" y="1536" on="1"/>
        <pt x="2048" y="1024" on="1"/>
        <pt x="3584" y="1024" on="1"/>
        <pt x="3584" y="2048" on="1"/>
        <pt x="4096" y="2048" on="1"/>
        <pt x="4096" y="512" on="1"/>
      </contour>
      <contour>
        <pt x="2560" y="2048" on="1"/>
        <pt x="2560" y="2560" on="1"/>
        <pt x="3584" y="2560" on="1"/>
        <pt x="3584" y="2048" on="1"/>
      </contour>
      <contour>
        <pt x="2560" y="3072" on="1"/>
        <pt x="2560" y="3584" on="1"/>
        <pt x="3072" y="3584" on="1"/>
        <pt x="3072" y="3072" on="1"/>
      </contour>
    </TTGlyph>
    <TTGlyph name="uniFEC2" xMin="0" yMin="512" xMax="3072" yMax="3584">
      <contour>
        <pt x="1536" y="2048" on="1"/>
        <pt x="1536" y="2560" on="1"/>
        <pt x="2560" y="2560" on="1"/>
        <pt x="2560" y="2048" on="1"/>
      </contour>
      <contour>
        <pt x="0" y="512" on="1"/>
        <pt x="0" y="1024" on="1"/>
        <pt x="512" y="1024" on="1"/>
        <pt x="512" y="3584" on="1"/>
        <pt x="1024" y="3584" on="1"/>
        <pt x="1024" y="2048" on="1"/>
        <pt x="1536" y="2048" on="1"/>
        <pt x="1536" y="1536" on="1"/>
        <pt x="1024" y="1536" on="1"/>
        <pt x="1024" y="1024" on="1"/>
        <pt x="2560" y="1024" on="1"/>
        <pt x="2560" y="2048" on="1"/>
        <pt x="3072" y="2048" on="1"/>
        <pt x="3072" y="512" on="1"/>
      </contour>
    </TTGlyph>
    <TTGlyph name="uniFEC6" xMin="0" yMin="512" xMax="3072" yMax="3584">
      <contour>
        <pt x="1536" y="2048" on="1"/>
        <pt x="1536" y="2560" on="1"/>
        <pt x="2560" y="2560" on="1"/>
        <pt x="2560" y="2048" on="1"/>
      </contour>
      <contour>
        <pt x="0" y="512" on="1"/>
        <pt x="0" y="1024" on="1"/>
        <pt x="512" y="1024" on="1"/>
        <pt x="512" y="3584" on="1"/>
        <pt x="1024" y="3584" on="1"/>
        <pt x="1024" y="2048" on="1"/>
        <pt x="1536" y="2048" on="1"/>
        <pt x="1536" y="1536" on="1"/>
        <pt x="1024" y="1536" on="1"/>
        <pt x="1024" y="1024" on="1"/>
        <pt x="2560" y="1024" on="1"/>
        <pt x="2560" y="2048" on="1"/>
        <pt x="3072" y="2048" on="1"/>
        <pt x="3072" y="512" on="1"/>
      </contour>
      <contour>
        <pt x="1536" y="3072" on="1"/>
        <pt x="1536" y="3584" on="1"/>
        <pt x="2048" y="3584" on="1"/>
        <pt x="2048" y="3072" on="1"/>
      </contour>
    </TTGlyph>
    <TTGlyph name="uniFECA" xMin="0" yMin="0" xMax="2048" yMax="2560">
      <contour>
        <pt x="512" y="0" on="1"/>
        <pt x="512" y="512" on="1"/>
        <pt x="2048" y="512" on="1"/>
        <pt x="2048" y="0" on="1"/>
      </contour>
      <contour>
        <pt x="0" y="512" on="1"/>
        <pt x="0" y="1536" on="1"/>
        <pt x="512" y="1536" on="1"/>
        <pt x="512" y="512" on="1"/>
      </contour>
      <contour>
        <pt x="512" y="1536" on="1"/>
        <pt x="512" y="2560" on="1"/>
        <pt x="1536" y="2560" on="1"/>
        <pt x="1536" y="2048" on="1"/>
        <pt x="2048" y="2048" on="1"/>
        <pt x="2048" y="1536" on="1"/>
      </contour>
    </TTGlyph>
    <TTGlyph name="uniFECE" xMin="0" yMin="0" xMax="2048" yMax="3584">
      <contour>
        <pt x="512" y="0" on="1"/>
        <pt x="512" y="512" on="1"/>
        <pt x="2048" y="512" on="1"/>
        <pt x="2048" y="0" on="1"/>
      </contour>
      <contour>
        <pt x="0" y="512" on="1"/>
        <pt x="0" y="1536" on="1"/>
        <pt x="512" y="1536" on="1"/>
        <pt x="512" y="512" on="1"/>
      </contour>
      <contour>
        <pt x="512" y="1536" on="1"/>
        <pt x="512" y="2560" on="1"/>
        <pt x="1536" y="2560" on="1"/>
        <pt x="1536" y="2048" on="1"/>
        <pt x="2048" y="2048" on="1"/>
        <pt x="2048" y="1536" on="1"/>
      </contour>
      <contour>
        <pt x="512" y="3072" on="1"/>
        <pt x="512" y="3584" on="1"/>
        <pt x="1024" y="3584" on="1"/>
        <pt x="1024" y="3072" on="1"/>
      </contour>
    </TTGlyph>
    <TTGlyph name="uniFEF5" xMin="0" yMin="512" xMax="2560" yMax="4096">
      <contour>
        <pt x="0" y="512" on="1"/>
        <pt x="0" y="1024" on="1"/>
        <pt x="1024" y="1024" on="1"/>
        <pt x="1024" y="1536" on="1"/>
        <pt x="1536" y="1536" on="1"/>
        <pt x="1536" y="1024" on="1"/>
        <pt x="2048" y="1024" on="1"/>
        <pt x="2048" y="512" on="1"/>
      </contour>
      <contour>
        <pt x="512" y="1536" on="1"/>
        <pt x="512" y="2560" on="1"/>
        <pt x="1024" y="2560" on="1"/>
        <pt x="1024" y="1536" on="1"/>
      </contour>
      <contour>
        <pt x="2048" y="1024" on="1"/>
        <pt x="2048" y="3072" on="1"/>
        <pt x="2560" y="3072" on="1"/>
        <pt x="2560" y="1024" on="1"/>
      </contour>
      <contour>
        <pt x="0" y="3072" on="1"/>
        <pt x="0" y="3584" on="1"/>
        <pt x="1024" y="3584" on="1"/>
        <pt x="1024" y="3072" on="1"/>
      </contour>
      <contour>
        <pt x="1024" y="3584" on="1"/>
        <pt x="1024" y="4096" on="1"/>
        <pt x="1536" y="4096" on="1"/>
        <pt x="1536" y="3584" on="1"/>
      </contour>
    </TTGlyph>
    <TTGlyph name="uniFEF6" xMin="0" yMin="512" xMax="3072" yMax="4096">
      <contour>
        <pt x="512" y="1536" on="1"/>
        <pt x="512" y="2560" on="1"/>
        <pt x="1024" y="2560" on="1"/>
        <pt x="1024" y="1536" on="1"/>
      </contour>
      <contour>
        <pt x="0" y="512" on="1"/>
        <pt x="0" y="1024" on="1"/>
        <pt x="1024" y="1024" on="1"/>
        <pt x="1024" y="1536" on="1"/>
        <pt x="1536" y="1536" on="1"/>
        <pt x="1536" y="1024" on="1"/>
        <pt x="2048" y="1024" on="1"/>
        <pt x="2048" y="3072" on="1"/>
        <pt x="2560" y="3072" on="1"/>
        <pt x="2560" y="1024" on="1"/>
        <pt x="3072" y="1024" on="1"/>
        <pt x="3072" y="512" on="1"/>
      </contour>
      <contour>
        <pt x="0" y="3072" on="1"/>
        <pt x="0" y="3584" on="1"/>
        <pt x="1024" y="3584" on="1"/>
        <pt x="1024" y="3072" on="1"/>
      </contour>
      <contour>
        <pt x="1024" y="3584" on="1"/>
        <pt x="1024" y="4096" on="1"/>
        <pt x="1536" y="4096" on="1"/>
        <pt x="1536" y="3584" on="1"/>
      </contour>
    </TTGlyph>
    <TTGlyph name="uniFEF7" xMin="0" yMin="512" xMax="2560" yMax="4096">
      <contour>
        <pt x="0" y="512" on="1"/>
        <pt x="0" y="1024" on="1"/>
        <pt x="1024" y="1024" on="1"/>
        <pt x="1024" y="1536" on="1"/>
        <pt x="1536" y="1536" on="1"/>
        <pt x="1536" y="1024" on="1"/>
        <pt x="2048" y="1024" on="1"/>
        <pt x="2048" y="512" on="1"/>
      </contour>
      <contour>
        <pt x="512" y="1536" on="1"/>
        <pt x="512" y="2560" on="1"/>
        <pt x="1024" y="2560" on="1"/>
        <pt x="1024" y="1536" on="1"/>
      </contour>
      <contour>
        <pt x="2048" y="1024" on="1"/>
        <pt x="2048" y="3072" on="1"/>
        <pt x="2560" y="3072" on="1"/>
        <pt x="2560" y="1024" on="1"/>
      </contour>
      <contour>
        <pt x="0" y="3072" on="1"/>
        <pt x="0" y="3584" on="1"/>
        <pt x="512" y="3584" on="1"/>
        <pt x="512" y="4096" on="1"/>
        <pt x="1536" y="4096" on="1"/>
        <pt x="1536" y="3584" on="1"/>
        <pt x="1024" y="3584" on="1"/>
        <pt x="1024" y="3072" on="1"/>
      </contour>
    </TTGlyph>
    <TTGlyph name="uniFEF8" xMin="0" yMin="512" xMax="3072" yMax="4096">
      <contour>
        <pt x="2560" y="512" on="1"/>
        <pt x="2560" y="1024" on="1"/>
        <pt x="3072" y="1024" on="1"/>
        <pt x="3072" y="512" on="1"/>
      </contour>
      <contour>
        <pt x="0" y="512" on="1"/>
        <pt x="0" y="1024" on="1"/>
        <pt x="1024" y="1024" on="1"/>
        <pt x="1024" y="1536" on="1"/>
        <pt x="1536" y="1536" on="1"/>
        <pt x="1536" y="1024" on="1"/>
        <pt x="2048" y="1024" on="1"/>
        <pt x="2048" y="512" on="1"/>
      </contour>
      <contour>
        <pt x="512" y="1536" on="1"/>
        <pt x="512" y="2560" on="1"/>
        <pt x="1024" y="2560" on="1"/>
        <pt x="1024" y="1536" on="1"/>
      </contour>
      <contour>
        <pt x="2048" y="1024" on="1"/>
        <pt x="2048" y="3072" on="1"/>
        <pt x="2560" y="3072" on="1"/>
        <pt x="2560" y="1024" on="1"/>
      </contour>
      <contour>
        <pt x="0" y="3072" on="1"/>
        <pt x="0" y="3584" on="1"/>
        <pt x="512" y="3584" on="1"/>
        <pt x="512" y="4096" on="1"/>
        <pt x="1536" y="4096" on="1"/>
        <pt x="1536" y="3584" on="1"/>
        <pt x="1024" y="3584" on="1"/>
        <pt x="1024" y="3072" on="1"/>
      </contour>
    </TTGlyph>
    <TTGlyph name="uniFEF9" xMin="0" yMin="-512" xMax="2560" yMax="3072">
      <contour>
        <pt x="0" y="-512" on="1"/>
        <pt x="0" y="0" on="1"/>
        <pt x="512" y="0" on="1"/>
        <pt x="512" y="512" on="1"/>
        <pt x="0" y="512" on="1"/>
        <pt x="0" y="1024" on="1"/>
        <pt x="1024" y="1024" on="1"/>
        <pt x="1024" y="1536" on="1"/>
        <pt x="1536" y="1536" on="1"/>
        <pt x="1536" y="1024" on="1"/>
        <pt x="2048" y="1024" on="1"/>
        <pt x="2048" y="512" on="1"/>
        <pt x="1536" y="512" on="1"/>
        <pt x="1536" y="0" on="1"/>
        <pt x="1024" y="0" on="1"/>
        <pt x="1024" y="-512" on="1"/>
      </contour>
      <contour>
        <pt x="512" y="1536" on="1"/>
        <pt x="512" y="2560" on="1"/>
        <pt x="1024" y="2560" on="1"/>
        <pt x="1024" y="1536" on="1"/>
      </contour>
      <contour>
        <pt x="2048" y="1024" on="1"/>
        <pt x="2048" y="3072" on="1"/>
        <pt x="2560" y="3072" on="1"/>
        <pt x="2560" y="1024" on="1"/>
      </contour>
    </TTGlyph>
    <TTGlyph name="uniFEFA" xMin="0" yMin="-512" xMax="3072" yMax="3072">
      <contour>
        <pt x="2560" y="512" on="1"/>
        <pt x="2560" y="1024" on="1"/>
        <pt x="3072" y="1024" on="1"/>
        <pt x="3072" y="512" on="1"/>
      </contour>
      <contour>
        <pt x="0" y="-512" on="1"/>
        <pt x="0" y="0" on="1"/>
        <pt x="512" y="0" on="1"/>
        <pt x="512" y="512" on="1"/>
        <pt x="0" y="512" on="1"/>
        <pt x="0" y="1024" on="1"/>
        <pt x="1024" y="1024" on="1"/>
        <pt x="1024" y="1536" on="1"/>
        <pt x="1536" y="1536" on="1"/>
        <pt x="1536" y="1024" on="1"/>
        <pt x="2048" y="1024" on="1"/>
        <pt x="2048" y="512" on="1"/>
        <pt x="1536" y="512" on="1"/>
        <pt x="1536" y="0" on="1"/>
        <pt x="1024" y="0" on="1"/>
        <pt x="1024" y="-512" on="1"/>
      </contour>
      <contour>
        <pt x="512" y="1536" on="1"/>
        <pt x="512" y="2560" on="1"/>
        <pt x="1024" y="2560" on="1"/>
        <pt x="1024" y="1536" on="1"/>
      </contour>
      <contour>
        <pt x="2048" y="1024" on="1"/>
        <pt x="2048" y="3072" on="1"/>
        <pt x="2560" y="3072" on="1"/>
        <pt x="2560" y="1024" on="1"/>
      </contour>
    </TTGlyph>
    <TTGlyph name="uniFEFB" xMin="0" yMin="512" xMax="2560" yMax="3072">
      <contour>
        <pt x="0" y="512" on="1"/>
        <pt x="0" y="1024" on="1"/>
        <pt x="1024" y="1024" on="1"/>
        <pt x="1024" y="1536" on="1"/>
        <pt x="1536" y="1536" on="1"/>
        <pt x="1536" y="1024" on="1"/>
        <pt x="2048" y="1024" on="1"/>
        <pt x="2048" y="512" on="1"/>
      </contour>
      <contour>
        <pt x="512" y="1536" on="1"/>
        <pt x="512" y="2560" on="1"/>
        <pt x="1024" y="2560" on="1"/>
        <pt x="1024" y="1536" on="1"/>
      </contour>
      <contour>
        <pt x="2048" y="1024" on="1"/>
        <pt x="2048" y="3072" on="1"/>
        <pt x="2560" y="3072" on="1"/>
        <pt x="2560" y="1024" on="1"/>
      </contour>
    </TTGlyph>
    <TTGlyph name="uniFEFC" xMin="0" yMin="512" xMax="3072" yMax="3072">
      <contour>
        <pt x="2560" y="512" on="1"/>
        <pt x="2560" y="1024" on="1"/>
        <pt x="3072" y="1024" on="1"/>
        <pt x="3072" y="512" on="1"/>
      </contour>
      <contour>
        <pt x="0" y="512" on="1"/>
        <pt x="0" y="1024" on="1"/>
        <pt x="1024" y="1024" on="1"/>
        <pt x="1024" y="1536" on="1"/>
        <pt x="1536" y="1536" on="1"/>
        <pt x="1536" y="1024" on="1"/>
        <pt x="2048" y="1024" on="1"/>
        <pt x="2048" y="512" on="1"/>
      </contour>
      <contour>
        <pt x="512" y="1536" on="1"/>
        <pt x="512" y="2560" on="1"/>
        <pt x="1024" y="2560" on="1"/>
        <pt x="1024" y="1536" on="1"/>
      </contour>
      <contour>
        <pt x="2048" y="1024" on="1"/>
        <pt x="2048" y="3072" on="1"/>
        <pt x="2560" y="3072" on="1"/>
        <pt x="2560" y="1024" on="1"/>
      </contour>
    </TTGlyph>
    <TTGlyph name="v" xMin="0" yMin="0" xMax="2560" yMax="2560">
      <contour>
        <pt x="1024" y="0" on="1"/>
        <pt x="1024" y="512" on="1"/>
        <pt x="1536" y="512" on="1"/>
        <pt x="1536" y="0" on="1"/>
      </contour>
      <contour>
        <pt x="512" y="512" on="1"/>
        <pt x="512" y="1024" on="1"/>
        <pt x="1024" y="1024" on="1"/>
        <pt x="1024" y="512" on="1"/>
      </contour>
      <contour>
        <pt x="1536" y="512" on="1"/>
        <pt x="1536" y="1024" on="1"/>
        <pt x="2048" y="1024" on="1"/>
        <pt x="2048" y="512" on="1"/>
      </contour>
      <contour>
        <pt x="0" y="1024" on="1"/>
        <pt x="0" y="2560" on="1"/>
        <pt x="512" y="2560" on="1"/>
        <pt x="512" y="1024" on="1"/>
      </contour>
      <contour>
        <pt x="2048" y="1024" on="1"/>
        <pt x="2048" y="2560" on="1"/>
        <pt x="2560" y="2560" on="1"/>
        <pt x="2560" y="1024" on="1"/>
      </contour>
    </TTGlyph>
    <TTGlyph name="w" xMin="0" yMin="0" xMax="2560" yMax="2560">
      <contour>
        <pt x="512" y="0" on="1"/>
        <pt x="512" y="512" on="1"/>
        <pt x="0" y="512" on="1"/>
        <pt x="0" y="2560" on="1"/>
        <pt x="512" y="2560" on="1"/>
        <pt x="512" y="1024" on="1"/>
        <pt x="1024" y="1024" on="1"/>
        <pt x="1024" y="1536" on="1"/>
        <pt x="1536" y="1536" on="1"/>
        <pt x="1536" y="1024" on="1"/>
        <pt x="2048" y="1024" on="1"/>
        <pt x="2048" y="2560" on="1"/>
        <pt x="2560" y="2560" on="1"/>
        <pt x="2560" y="512" on="1"/>
        <pt x="2048" y="512" on="1"/>
        <pt x="2048" y="0" on="1"/>
        <pt x="1536" y="0" on="1"/>
        <pt x="1536" y="512" on="1"/>
        <pt x="1024" y="512" on="1"/>
        <pt x="1024" y="0" on="1"/>
      </contour>
    </TTGlyph>
    <TTGlyph name="x" xMin="0" yMin="0" xMax="2048" yMax="2560">
      <contour>
        <pt x="0" y="0" on="1"/>
        <pt x="0" y="1024" on="1"/>
        <pt x="512" y="1024" on="1"/>
        <pt x="512" y="0" on="1"/>
      </contour>
      <contour>
        <pt x="1536" y="0" on="1"/>
        <pt x="1536" y="1024" on="1"/>
        <pt x="2048" y="1024" on="1"/>
        <pt x="2048" y="0" on="1"/>
      </contour>
      <contour>
        <pt x="512" y="1024" on="1"/>
        <pt x="512" y="1536" on="1"/>
        <pt x="1536" y="1536" on="1"/>
        <pt x="1536" y="1024" on="1"/>
      </contour>
      <contour>
        <pt x="0" y="1536" on="1"/>
        <pt x="0" y="2560" on="1"/>
        <pt x="512" y="2560" on="1"/>
        <pt x="512" y="1536" on="1"/>
      </contour>
      <contour>
        <pt x="1536" y="1536" on="1"/>
        <pt x="1536" y="2560" on="1"/>
        <pt x="2048" y="2560" on="1"/>
        <pt x="2048" y="1536" on="1"/>
      </contour>
    </TTGlyph>
    <TTGlyph name="y" xMin="0" yMin="-512" xMax="2048" yMax="2560">
      <contour>
        <pt x="0" y="-512" on="1"/>
        <pt x="0" y="0" on="1"/>
        <pt x="1024" y="0" on="1"/>
        <pt x="1024" y="-512" on="1"/>
      </contour>
      <contour>
        <pt x="0" y="1024" on="1"/>
        <pt x="0" y="2560" on="1"/>
        <pt x="512" y="2560" on="1"/>
        <pt x="512" y="1024" on="1"/>
      </contour>
      <contour>
        <pt x="1024" y="0" on="1"/>
        <pt x="1024" y="512" on="1"/>
        <pt x="512" y="512" on="1"/>
        <pt x="512" y="1024" on="1"/>
        <pt x="1536" y="1024" on="1"/>
        <pt x="1536" y="2560" on="1"/>
        <pt x="2048" y="2560" on="1"/>
        <pt x="2048" y="512" on="1"/>
        <pt x="1536" y="512" on="1"/>
        <pt x="1536" y="0" on="1"/>
      </contour>
    </TTGlyph>
    <TTGlyph name="z" xMin="0" yMin="0" xMax="2048" yMax="2560">
      <contour>
        <pt x="0" y="0" on="1"/>
        <pt x="0" y="1024" on="1"/>
        <pt x="512" y="1024" on="1"/>
        <pt x="512" y="512" on="1"/>
        <pt x="2048" y="512" on="1"/>
        <pt x="2048" y="0" on="1"/>
      </contour>
      <contour>
        <pt x="512" y="1024" on="1"/>
        <pt x="512" y="1536" on="1"/>
        <pt x="1536" y="1536" on="1"/>
        <pt x="1536" y="1024" on="1"/>
      </contour>
      <contour>
        <pt x="1536" y="1536" on="1"/>
        <pt x="1536" y="2048" on="1"/>
        <pt x="0" y="2048" on="1"/>
        <pt x="0" y="2560" on="1"/>
        <pt x="2048" y="2560" on="1"/>
        <pt x="2048" y="1536" on="1"/>
      </contour>
    </TTGlyph>
    <TTGlyph name="zero" xMin="0" yMin="0" xMax="2560" yMax="3584">
      <contour>
        <pt x="512" y="0" on="1"/>
        <pt x="512" y="512" on="1"/>
        <pt x="2048" y="512" on="1"/>
        <pt x="2048" y="0" on="1"/>
      </contour>
      <contour>
        <pt x="1024" y="1536" on="1"/>
        <pt x="1024" y="2048" on="1"/>
        <pt x="1536" y="2048" on="1"/>
        <pt x="1536" y="1536" on="1"/>
      </contour>
      <contour>
        <pt x="0" y="512" on="1"/>
        <pt x="0" y="3072" on="1"/>
        <pt x="512" y="3072" on="1"/>
        <pt x="512" y="1536" on="1"/>
        <pt x="1024" y="1536" on="1"/>
        <pt x="1024" y="1024" on="1"/>
        <pt x="512" y="1024" on="1"/>
        <pt x="512" y="512" on="1"/>
      </contour>
      <contour>
        <pt x="2048" y="512" on="1"/>
        <pt x="2048" y="2048" on="1"/>
        <pt x="1536" y="2048" on="1"/>
        <pt x="1536" y="2560" on="1"/>
        <pt x="2048" y="2560" on="1"/>
        <pt x="2048" y="3072" on="1"/>
        <pt x="2560" y="3072" on="1"/>
        <pt x="2560" y="512" on="1"/>
      </contour>
      <contour>
        <pt x="512" y="3072" on="1"/>
        <pt x="512" y="3584" on="1"/>
        <pt x="2048" y="3584" on="1"/>
        <pt x="2048" y="3072" on="1"/>
      </contour>
    </TTGlyph>
</ttFont>
